<svg width="1920" height="908" viewBox="0 0 1920 908" fill="none" xmlns="http://www.w3.org/2000/svg">
<path d="M44.5 -75L44.4999 1155M98.5 -75L98.4999 1155M152.5 -75L152.5 1155M206.5 -75L206.5 1155M260.5 -75L260.5 1155M314.5 -75L314.5 1155M368.5 -75L368.5 1155M422.5 -75L422.5 1155M476.5 -75L476.5 1155M530.5 -75L530.5 1155M584.5 -75L584.5 1155M638.5 -75L638.5 1155M692.5 -75L692.5 1155M746.5 -75L746.5 1155M800.5 -75L800.5 1155M854.5 -75L854.5 1155M908.5 -75L908.5 1155M962.5 -75V1155M2014 37.5H-90M2014 77.5H-90M2014 117.5H-90M2014 157.5H-90M2014 197.5H-90M2014 237.5H-90M2014 277.5H-90M2014 317.5H-90M2014 357.5H-90M2014 397.5H-90M2014 437.5H-90M2014 477.5H-90M2014 517.5H-90M2014 557.5H-90M2014 597.5H-90M2014 637.5H-90M2014 677.5H-90M2014 717.5H-90M2014 757.5H-90M2014 797.5H-90M2014 837.5H-90M2014 877.5H-90M2014 917.5H-90M2014 957.5H-90M2014 997.5H-90M2014 1037.5H-90M2014 1077.5H-90M1016.5 -75V1155M1070.5 -75V1155M1124.5 -75V1155M1178.5 -75V1155M1232.5 -75V1155M1286.5 -75V1155M1340.5 -75V1155M1394.5 -75V1155M1448.5 -75V1155M1502.5 -75V1155M1556.5 -75V1155M1610.5 -75V1155M1664.5 -75V1155M1718.5 -75V1155M1772.5 -75V1155M1826.5 -75V1155M1880.5 -75V1155M1934.5 -75V1155" stroke="#CFCFCF"/>
</svg>
