<svg width="154" height="240" viewBox="0 0 154 240" fill="none" xmlns="http://www.w3.org/2000/svg">
<path d="M104.187 0.817786C102.057 0.437756 99.3714 0.919128 97.4839 1.58291C95.5988 2.24923 93.9935 2.82941 92.2124 3.66294C90.4314 4.49394 88.7474 5.11213 86.8901 5.68724C85.0327 6.26488 83.173 6.89067 81.304 7.42271C79.435 7.95728 77.4805 8.73001 75.6624 9.35073C73.8444 9.97144 72.1674 10.7112 70.421 11.4637C68.677 12.2187 66.9213 12.7178 65.2536 13.6577C63.5836 14.5977 61.71 14.8333 60.0608 15.8239C58.4116 16.812 56.4986 17.0805 54.9234 18.3042C53.3506 19.5305 50.3991 18.1294 48.9233 19.0795C47.4499 20.0321 47.1839 22.3376 45.4884 23.1712C43.793 24.0047 42.6781 25.2867 41.0936 26.2114C39.5092 27.1361 38.3827 28.6233 36.8954 29.7203C35.4081 30.8199 34.1752 31.9169 32.5353 32.7986C30.893 33.6802 29.5768 34.7215 27.7819 35.4461C25.987 36.1707 24.2822 36.7914 22.3092 37.3057C20.3384 37.8226 18.0254 38.3496 15.828 38.3141C13.6305 38.2786 11.1602 38.0481 8.88875 38.0607C6.61731 38.0734 5.08606 37.06 2.79843 37.7238C0.510808 38.3901 1.16078 41.1795 1.02431 43.6345C0.887839 46.0895 1.3759 48.6762 1.25562 51.2351C1.13534 53.794 1.29263 56.553 1.48692 59.0891C1.68122 61.6251 1.41291 64.1612 1.25562 66.6897C1.09833 69.2181 1.49155 71.7542 1.48692 74.2903C1.4823 76.8263 1.86858 79.2813 1.71823 81.8909C1.56788 84.5004 1.89634 87.1783 1.94954 89.7448C2.00274 92.3113 2.14615 94.7739 2.18084 97.3454C2.21554 99.917 2.16465 102.412 2.41215 104.946C2.65965 107.48 2.00043 109.967 2.18084 112.547C2.36126 115.126 1.74136 117.591 1.71823 120.147C1.6951 122.704 1.73442 125.427 1.71823 128.001C1.70204 130.575 1.73905 133.289 1.71823 135.855C1.69741 138.422 2.33119 140.4 2.41215 142.949C2.49311 145.498 2.28725 148.505 2.41215 151.056C2.53706 153.608 2.15309 156.432 2.41215 158.91C2.67353 161.386 2.30806 163.775 2.41215 166.258C2.51624 168.738 3.22404 170.666 3.33738 173.098C3.45072 175.53 3.09913 178.403 3.56869 180.699C4.03824 182.994 2.98348 186.706 3.571 188.803C4.1562 190.901 2.73367 194.605 4.80155 195.31C6.86944 196.014 9.63818 195.145 11.8957 195.393C14.1533 195.641 16.7277 195.315 19.0662 195.393C21.4048 195.472 23.9468 195.312 26.2368 195.647C28.5267 195.981 31.0942 195.464 33.4073 195.647C35.7203 195.829 38.2948 195.495 40.5778 195.647C42.8608 195.799 45.5625 195.421 47.7483 195.647C49.9318 195.872 53.1169 196.688 52.8371 193.62C52.5572 190.552 53.0707 188.765 53.0684 186.019C53.0661 183.273 52.9943 180.757 53.0684 178.165C53.1424 175.571 52.8417 172.789 53.1193 170.367C53.3968 167.945 52.4855 164.314 55.1501 164.484C57.8148 164.654 59.8387 164.446 62.3206 164.484C64.8026 164.522 67.1341 164.552 69.4912 164.484C71.8482 164.416 74.2815 164.621 76.4304 164.737C78.5792 164.854 82.028 165.568 81.7504 162.711C81.4729 159.853 82.0349 157.58 81.9817 154.857C81.9285 152.133 82.0234 149.914 82.213 147.256C82.4027 144.598 82.1691 142.186 82.213 139.402C82.2593 136.62 85.028 136.843 87.2509 137.178C89.4715 137.512 92.0737 137.34 94.4723 137.375C96.871 137.411 98.9597 137.332 101.412 137.629C103.863 137.925 105.786 137.195 108.351 137.375C110.916 137.555 112.218 136.463 111.589 133.575C110.96 130.687 112.142 128.467 111.82 125.721C111.499 122.975 111.931 120.515 111.82 117.867C111.709 115.219 111.788 112.605 111.837 110.031C111.885 107.459 111.601 104.523 114.365 104.946C117.129 105.369 119.153 104.68 121.767 104.946C124.38 105.212 126.363 104.667 128.937 104.946C131.511 105.225 133.448 104.467 136.108 104.946C138.768 105.425 140.595 104.467 140.04 101.399C139.485 98.331 140.343 96.5347 140.271 93.7985C140.199 91.0623 140.32 88.3032 140.271 85.6912C140.222 83.0791 140.327 80.2795 140.271 77.8372C140.216 75.3949 141.071 71.929 138.421 72.0101C135.77 72.0912 133.757 71.9898 131.25 72.0101C128.743 72.0303 126.275 72.0329 123.848 72.0101C121.422 71.9873 119.012 72.0937 116.678 72.0101C114.344 71.9265 111.897 72.2862 112.283 69.4765C112.669 66.6669 112.172 64.3461 112.283 61.6226C112.394 58.899 112.345 56.4035 112.514 53.7686C112.683 51.1338 112.399 48.5268 112.514 45.9147C112.63 43.3026 112.378 40.6475 112.514 38.0607C112.651 35.474 112.743 33.0849 112.746 30.4601C112.748 27.8354 112.63 24.9472 112.746 22.3528C112.861 19.7585 112.961 17.3668 112.977 14.7522C112.993 12.1376 112.776 9.4774 112.977 6.89827C113.178 4.31913 111.073 3.76935 109.292 3.08023C107.511 2.39111 105.973 1.13448 104.187 0.817786ZM23.2298 48.9549C27.1944 49.7327 26.7063 55.9171 26.9307 59.3424C27.1551 62.7677 25.7395 68.7874 21.3793 67.7031C17.0192 66.6187 17.9213 61.1387 17.6784 57.3156C17.4355 53.4925 18.6777 48.0606 23.2298 48.9549ZM11.8957 49.4616C11.8957 54.6123 11.8957 59.7655 11.8957 64.9162C13.7254 65.2278 17.5836 63.7026 16.7532 67.1964C14.3638 67.1964 11.9721 67.1964 9.58267 67.1964C9.58267 61.2856 9.58267 55.3724 9.58267 49.4616C10.3529 49.4616 11.1255 49.4616 11.8957 49.4616ZM37.3395 67.4497C36.6687 66.9683 35.7897 67.2926 35.0264 67.1964C34.2839 64.8858 34.462 60.3533 31.0942 61.3692C30.6362 63.2719 31.5707 65.5014 30.8629 67.4497C30.1921 66.9683 29.3131 67.2926 28.5498 67.1964C28.9639 61.3591 28.7996 55.3116 28.5498 49.4616C31.078 49.606 34.7211 48.6813 36.3564 51.2984C37.9918 53.913 37.1105 57.4524 35.8938 59.7858C34.6772 62.1192 38.0843 64.9745 37.3395 67.4497ZM45.4352 49.4616C46.3119 55.4053 47.3828 61.2983 48.4422 67.1964C46.9387 67.3433 45.4214 67.3382 45.6827 65.1518C45.9441 62.9654 43.9896 63.3378 42.4282 63.3961C40.8669 63.4543 41.1306 65.8941 41.0404 67.1964C40.1915 67.1964 39.3449 67.1964 38.496 67.1964C39.4189 61.2654 40.6241 55.4104 41.503 49.4616C42.8145 49.4616 44.1237 49.4616 45.4352 49.4616ZM52.1431 49.4616C52.1431 55.3724 52.1431 61.2856 52.1431 67.1964C51.3729 67.1964 50.6003 67.1964 49.8301 67.1964C49.8301 61.2856 49.8301 55.3724 49.8301 49.4616C50.6003 49.4616 51.3729 49.4616 52.1431 49.4616ZM57.4632 49.4616C58.474 53.2721 59.8179 56.9938 60.7015 60.8625C61.2404 57.2928 60.7801 53.2239 60.9328 49.4616C61.7031 49.4616 62.4756 49.4616 63.2459 49.4616C63.0932 55.4357 63.5535 61.5897 63.0146 67.4497C60.0492 67.926 59.8387 64.6907 59.0985 62.3649C58.3584 60.0366 57.6991 57.6373 57.0006 55.2888C56.4616 59.0283 56.9219 63.2669 56.7693 67.1964C55.999 67.1964 55.2265 67.1964 54.4562 67.1964C54.4562 61.2856 54.4562 55.3724 54.4562 49.4616C55.4578 49.4616 56.4616 49.4616 57.4632 49.4616ZM17.9097 81.6375C14.0839 83.2362 16.8064 76.8061 14.0515 76.4894C11.299 76.1727 11.484 81.0193 11.6644 83.1576C11.8448 85.2959 10.7855 90.2389 13.7485 90.5023C16.7092 90.7658 14.1718 83.7555 17.9097 85.4378C18.5782 89.1748 16.7902 93.6465 12.821 92.7851C8.85174 91.9237 9.35367 86.9225 9.35136 83.411C9.34905 79.8995 8.92344 74.9211 12.8719 74.0926C16.8226 73.2667 18.5759 77.9613 17.9097 81.6375ZM25.0802 74.0369C29.2784 74.7843 28.5267 80.5633 28.7811 84.171C29.0356 87.7788 27.9785 93.763 23.4611 92.7851C18.9437 91.8071 20.0493 86.4259 19.7602 82.6509C19.471 78.876 20.5096 73.2236 25.0802 74.0369ZM33.176 74.5436C32.8591 79.0026 33.597 82.1113 33.176 86.7046C32.755 91.2979 37.7836 91.2953 37.3395 86.7046C36.8954 82.1138 37.6726 79.0001 37.3395 74.5436C40.9571 73.5606 39.4398 77.4977 39.6526 80.1174C39.8654 82.7396 39.5508 85.8888 39.4236 88.4806C39.294 91.0724 37.6194 92.8231 35.2577 92.7851C32.8961 92.7471 31.3417 91.2852 31.0988 88.7263C30.8583 86.1649 30.6825 82.9803 30.8629 80.3707C31.0433 77.7612 29.482 73.5505 33.176 74.5436ZM44.9726 74.5436C46.0043 78.2704 47.2626 81.9289 48.2109 85.6912C48.7499 82.205 48.2896 78.2198 48.4422 74.5436C49.2125 74.5436 49.985 74.5436 50.7553 74.5436C50.7553 80.5405 50.7553 86.5348 50.7553 92.5317C49.9064 92.5317 49.0598 92.5317 48.2109 92.5317C46.9827 88.4806 45.6874 84.4447 44.51 80.3707C43.6565 82.0099 44.8593 84.9539 44.2787 86.7046C43.6981 88.4552 45.6133 91.8122 43.5778 92.5241C41.5423 93.2386 41.8292 89.2305 41.9656 87.4646C42.1021 85.6988 42.4097 83.1754 42.1206 81.2144C41.8315 79.2534 42.0142 76.6211 41.9656 74.5436C42.9672 74.5436 43.9711 74.5436 44.9726 74.5436ZM61.1641 74.5436C61.1641 75.3037 61.1641 76.0637 61.1641 76.8238C60.0839 76.8238 59.006 76.8238 57.9258 76.8238C57.9258 82.0606 57.9258 87.2949 57.9258 92.5317C54.8471 93.4235 55.5804 90.9457 55.6127 88.7314C55.6451 86.5171 55.7353 84.095 55.6127 81.8909C55.4901 79.6867 56.6259 76.5223 53.7623 76.8238C50.8987 77.1253 52.3744 73.7126 54.6875 74.5436C57.0006 75.3746 58.8904 73.9204 61.1641 74.5436ZM66.2529 82.6509C67.0439 79.978 67.7957 77.2976 68.3346 74.5436C69.1835 74.5436 70.0301 74.5436 70.879 74.5436C70.4812 76.4995 69.7595 78.392 69.1858 80.2897C68.6099 82.1847 68.0108 84.3864 67.4603 86.2536C66.9098 88.1208 68.5451 92.7141 66.0216 92.5317C63.498 92.3493 65.7949 88.402 65.02 86.5348C64.2451 84.6676 63.919 82.5521 63.2505 80.619C62.5843 78.6834 61.9506 76.5983 61.6267 74.5436C65.8781 73.6721 64.4371 80.1858 66.2529 82.6509ZM51.6805 99.1189C55.777 99.6788 55.4555 105.757 55.6127 109.253C55.77 112.749 54.7222 118.685 50.2927 117.867C45.8632 117.049 46.5293 111.571 46.3605 107.733C46.1916 103.895 47.177 98.5032 51.6805 99.1189ZM17.6784 99.6256C17.387 103.053 17.3569 107.317 17.4471 110.773C17.5373 114.229 16.9775 117.472 13.5149 117.867C10.0522 118.262 8.64587 115.08 8.65744 111.787C9.32823 111.305 10.2072 111.629 10.9705 111.533C10.043 116.403 15.6383 116.562 15.134 112.04C14.6298 107.518 15.5134 104.052 15.134 99.6256C15.9829 99.6256 16.8295 99.6256 17.6784 99.6256ZM22.0732 99.6256C22.5867 102.126 21.3932 106.198 21.8419 108.493C22.2907 110.788 21.1133 115.316 23.9283 115.582C26.7456 115.845 26.3015 111.429 26.2368 109C26.172 106.57 26.2853 102.23 26.2368 99.6256C27.007 99.6256 27.7796 99.6256 28.5498 99.6256C28.5429 102.529 28.5591 106.451 28.5498 109.253C28.5406 112.055 28.6007 115.415 26.6809 117.087C24.7587 118.759 21.34 118.12 20.3963 115.65C19.4502 113.183 19.6237 109.21 19.7602 106.466C19.8966 103.722 18.2659 98.635 22.0732 99.6256ZM33.8699 99.6256C34.8321 103.459 36.2269 107.15 37.1082 111.026C37.6471 107.457 37.1868 103.388 37.3395 99.6256C38.1097 99.6256 38.8823 99.6256 39.6526 99.6256C39.6526 105.622 39.6526 111.617 39.6526 117.614C38.8037 117.614 37.9571 117.614 37.1082 117.614C35.8291 113.588 34.5754 109.532 33.4073 105.453C32.8683 109.278 33.3286 113.598 33.176 117.614C32.4057 117.614 31.6332 117.614 30.8629 117.614C30.8629 111.617 30.8629 105.622 30.8629 99.6256C31.8645 99.6256 32.8683 99.6256 33.8699 99.6256ZM44.51 99.6256C43.904 102.737 44.658 106.91 44.2787 110.013C43.8994 113.117 46.0806 118.369 41.9656 117.614C41.9656 111.617 41.9656 105.622 41.9656 99.6256C42.8145 99.6256 43.6611 99.6256 44.51 99.6256ZM66.4842 117.614C65.7139 117.614 64.9413 117.614 64.1711 117.614C63.6044 115.569 62.9845 113.542 62.3206 111.533C57.8634 109.912 61.5943 116.833 59.08 117.611C56.5657 118.389 57.7246 116.038 57.6459 114.769C57.565 113.499 57.7801 111.255 57.6945 109.76C57.6089 108.265 57.7685 106.284 57.6945 104.693C57.6205 103.102 57.3267 101.298 57.4632 99.6256C59.9081 99.7624 63.7062 98.8706 65.2698 101.462C66.8334 104.054 66.1094 107.442 64.9228 109.823C63.7339 112.202 66.6137 114.971 66.4842 117.614ZM78.7434 99.6256C78.7434 100.386 78.7434 101.146 78.7434 101.906C77.6378 102.554 74.4504 100.809 73.9045 102.433C73.3609 104.059 74.2723 106.768 73.886 108.493C75.6809 108.746 79.3518 107.378 78.5121 110.773C77.3926 111.29 74.1612 109.75 73.8929 111.541C73.6246 113.329 73.9137 115.632 74.1173 117.36C73.3725 117.859 72.4102 117.507 71.5729 117.614C71.5729 111.617 71.5729 105.622 71.5729 99.6256C73.9623 99.6256 76.354 99.6256 78.7434 99.6256ZM89.3836 117.614C86.6796 119.017 86.8276 115.534 86.5315 114.15C86.2355 112.767 81.459 113.008 82.213 115.08C82.9671 117.155 79.6201 118.787 79.516 116.681C79.4119 114.576 80.4551 113.003 80.5777 111.009C80.698 109.015 81.2948 107.398 81.5145 105.448C81.7342 103.494 82.1992 101.579 82.4443 99.6256C85.5647 98.597 86.6819 100.441 86.8392 103.173C86.9965 105.906 87.8916 107.829 88.072 110.436C88.2525 113.043 89.3257 114.997 89.3836 117.614ZM93.0845 99.6256C93.0845 105.622 93.0845 111.617 93.0845 117.614C92.3142 117.614 91.5416 117.614 90.7714 117.614C91.0582 114.434 90.3897 110.31 90.7714 107.226C91.153 104.143 89.0389 98.825 93.0845 99.6256ZM102.105 110.52C103.01 112.754 103.514 115.126 104.418 117.36C100.993 118.979 101.141 113.76 100.255 111.533C96.48 110.358 97.9859 115.202 97.7106 117.614C96.9403 117.614 96.1678 117.614 95.3975 117.614C95.3975 111.617 95.3975 105.622 95.3975 99.6256C98.046 99.5293 102.138 99.0708 103.331 102.083C104.527 105.095 104.132 108.305 102.105 110.52ZM25.3115 124.454C29.4913 125.108 28.7464 131.095 29.0124 134.588C29.2785 138.082 28.2144 144.251 23.6924 143.202C19.1703 142.153 20.2968 136.907 19.9915 133.068C19.6862 129.23 20.7502 123.74 25.3115 124.454ZM16.0593 134.588C17.9907 135.916 19.0385 139.392 17.269 141.487C15.4995 143.582 11.6922 142.997 9.35136 142.696C9.88336 136.909 9.43463 130.851 9.58267 124.961C11.8425 125.08 16.1078 124.203 17.3893 126.798C18.6707 129.39 18.2474 133.233 16.0593 134.588ZM40.1152 142.696C39.4444 143.177 38.5654 142.853 37.8021 142.949C37.24 141.675 37.439 140.17 36.8769 138.895C35.5284 139.035 32.6949 138.156 32.8683 140.332C33.0418 142.508 31.7141 143.605 29.9377 142.696C30.4627 140.035 31.085 137.892 31.3232 135.093C31.5614 132.296 32.6995 130.248 32.7087 127.236C32.7157 124.224 37.1151 123.986 37.3233 127.005C37.5292 130.028 38.2879 132.095 38.6764 134.897C39.0627 137.7 39.4374 140.03 40.1152 142.696ZM46.1292 136.869C42.5555 136.334 44.0034 138.525 43.7999 141.447C43.5963 144.368 40.4483 142.364 41.2717 139.655C42.0952 136.947 41.3735 134.903 41.503 132.308C41.6326 129.714 40.9248 127.593 41.2717 124.961C43.4367 125.103 46.3281 124.457 48.1392 125.8C49.9527 127.14 50.1053 130.251 49.8301 132.308C49.5548 134.365 47.5864 136.331 48.8886 138.153C50.1886 139.975 50.598 143.704 48.4422 142.949C46.2864 142.194 47.436 138.434 46.1292 136.869ZM51.9118 124.961C54.0375 125.242 56.605 124.31 58.4393 125.665C60.2736 127.018 60.1764 129.136 60.4702 131.295C60.7639 133.453 60.7732 136.509 60.2412 138.645C59.7092 140.78 58.7146 142.047 56.7647 142.691C54.8124 143.332 51.1416 143.435 51.9118 140.415C52.6821 137.396 51.8702 135.693 52.1431 132.815C52.4161 129.937 51.8309 127.745 51.9118 124.961Z" stroke="white" stroke-width="0.3"/>
<path d="M23.2296 48.9543C18.6775 48.0599 17.4354 53.4918 17.6783 57.3149C17.9211 61.138 17.0191 66.6181 21.3792 67.7024C25.7393 68.7868 27.1549 62.7671 26.9306 59.3418C26.7062 55.9164 27.1942 49.7321 23.2296 48.9543ZM22.5357 51.2345C25.0547 51.5435 24.1271 56.7424 24.3862 58.5817C24.6452 60.421 24.4371 65.8884 21.9181 65.3386C19.3969 64.7863 20.2157 59.9346 19.9913 58.075C19.767 56.2154 19.996 50.9228 22.5357 51.2345Z" stroke="#FEFFFF" stroke-width="0.3"/>
<path d="M11.8961 49.4619C11.1258 49.4619 10.3533 49.4619 9.58301 49.4619C9.58301 55.3726 9.58301 61.2859 9.58301 67.1966C11.9724 67.1966 14.3641 67.1966 16.7535 67.1966C17.5839 63.7029 13.7257 65.2281 11.8961 64.9165C11.8961 59.7658 11.8961 54.6126 11.8961 49.4619Z" stroke="#FEFFFF" stroke-width="0.3"/>
<path d="M37.3395 67.4496C38.0843 64.9744 34.6771 62.1191 35.8938 59.7857C37.1105 57.4523 37.9918 53.9129 36.3564 51.2983C34.7211 48.6812 31.078 49.6059 28.5498 49.4615C28.7996 55.3115 28.9638 61.359 28.5498 67.1963C29.3131 67.2925 30.1921 66.9682 30.8629 67.4496C31.5707 65.5013 30.6362 63.2718 31.0942 61.3691C34.462 60.3532 34.2839 64.8857 35.0264 67.1963C35.7897 67.2925 36.6687 66.9682 37.3395 67.4496ZM32.7133 51.4884C35.1698 51.9469 34.4782 54.5843 34.58 56.8265C34.6841 59.0712 30.3933 59.8237 30.8629 57.5688C31.3324 55.314 30.0834 50.9969 32.7133 51.4884Z" stroke="#FEFFFF" stroke-width="0.3"/>
<path d="M45.4353 49.4619C44.1238 49.4619 42.8146 49.4619 41.5031 49.4619C40.6241 55.4107 39.419 61.2656 38.4961 67.1966C39.345 67.1966 40.1916 67.1966 41.0405 67.1966C41.1307 65.8944 40.867 63.4546 42.4283 63.3963C43.9896 63.3381 45.9442 62.9656 45.6828 65.1521C45.4214 67.3385 46.9388 67.3436 48.4423 67.1966C47.3829 61.2986 46.312 55.4056 45.4353 49.4619ZM43.5848 52.2488C44.0359 55.2865 44.8085 58.2431 44.9727 61.3695C42.1808 62.3373 41.6349 60.2269 42.4121 58.0582C43.187 55.887 42.4561 54.1008 43.5848 52.2488Z" stroke="#FEFFFF" stroke-width="0.3"/>
<path d="M52.1431 49.4619C51.3729 49.4619 50.6003 49.4619 49.8301 49.4619C49.8301 55.3726 49.8301 61.2859 49.8301 67.1966C50.6003 67.1966 51.3729 67.1966 52.1431 67.1966C52.1431 61.2859 52.1431 55.3726 52.1431 49.4619Z" stroke="#FEFFFF" stroke-width="0.3"/>
<path d="M57.463 49.4619C56.4615 49.4619 55.4576 49.4619 54.4561 49.4619C54.4561 55.3726 54.4561 61.2859 54.4561 67.1966C55.2263 67.1966 55.9989 67.1966 56.7691 67.1966C56.9218 63.2671 56.4615 59.0285 57.0004 55.289C57.699 57.6376 58.3582 60.0369 59.0984 62.3652C59.8386 64.691 60.0491 67.9263 63.0144 67.45C63.5534 61.5899 63.0931 55.436 63.2457 49.4619C62.4755 49.4619 61.7029 49.4619 60.9326 49.4619C60.78 53.2242 61.2403 57.2931 60.7013 60.8628C59.8177 56.9941 58.4739 53.2723 57.463 49.4619Z" stroke="#FEFFFF" stroke-width="0.3"/>
<path d="M22.5364 51.2354C19.9967 50.9237 19.7677 56.2163 19.992 58.0759C20.2164 59.9355 19.3976 64.7872 21.9188 65.3395C24.4378 65.8893 24.6459 60.422 24.3869 58.5826C24.1278 56.7433 25.0553 51.5445 22.5364 51.2354Z" stroke="white" stroke-width="0.3"/>
<path d="M32.7135 51.4884C30.0836 50.9969 31.3326 55.314 30.8631 57.5688C30.3935 59.8237 34.6843 59.0712 34.5802 56.8265C34.4784 54.5843 35.17 51.9469 32.7135 51.4884Z" stroke="white" stroke-width="0.3"/>
<path d="M43.5856 52.2485C42.4568 54.1005 43.1877 55.8867 42.4128 58.0579C41.6356 60.2266 42.1815 62.3371 44.9734 61.3693C44.8092 58.2429 44.0366 55.2862 43.5856 52.2485Z" stroke="white" stroke-width="0.3"/>
<path d="M17.9097 81.6375C18.5759 77.9614 16.8226 73.2668 12.8718 74.0927C8.92343 74.9211 9.34904 79.8995 9.35135 83.411C9.35366 86.9225 8.85173 91.9237 12.821 92.7851C16.7902 93.6465 18.5782 89.1748 17.9097 85.4378C14.1718 83.7556 16.7092 90.7659 13.7485 90.5024C10.7855 90.2389 11.8448 85.296 11.6644 83.1577C11.484 81.0194 11.299 76.1727 14.0515 76.4894C16.8064 76.8061 14.0839 83.2362 17.9097 81.6375Z" stroke="#FEFFFF" stroke-width="0.3"/>
<path d="M25.0806 74.0374C20.51 73.2242 19.4714 78.8765 19.7605 82.6514C20.0497 86.4264 18.944 91.8076 23.4614 92.7856C27.9789 93.7635 29.0359 87.7793 28.7815 84.1716C28.5271 80.5638 29.2788 74.7848 25.0806 74.0374ZM24.618 76.3176C27.0027 76.8598 26.2626 81.8458 26.4684 83.6649C26.6743 85.4839 26.5586 91.0349 23.9241 90.5054C21.2895 89.9734 22.3026 84.995 22.0736 83.1582C21.8446 81.3213 21.9325 75.707 24.618 76.3176Z" stroke="#FEFFFF" stroke-width="0.3"/>
<path d="M33.176 74.5438C29.4821 73.5507 31.0434 77.7614 30.863 80.371C30.6825 82.9805 30.8583 86.1652 31.0989 88.7266C31.3418 91.2854 32.8962 92.7473 35.2578 92.7853C37.6194 92.8233 39.2941 91.0726 39.4236 88.4808C39.5509 85.889 39.8654 82.7398 39.6526 80.1176C39.4398 77.4979 40.9572 73.5608 37.3396 74.5438C37.6726 79.0003 36.8954 82.114 37.3396 86.7048C37.7837 91.2956 32.7551 91.2981 33.176 86.7048C33.597 82.1115 32.8591 79.0029 33.176 74.5438Z" stroke="#FEFFFF" stroke-width="0.3"/>
<path d="M44.9728 74.543C43.9712 74.543 42.9674 74.543 41.9658 74.543C42.0144 76.6205 41.8317 79.2528 42.1208 81.2138C42.4099 83.1747 42.1023 85.6981 41.9658 87.464C41.8293 89.2299 41.5425 93.2379 43.578 92.5235C45.6135 91.8115 43.6983 88.4546 44.2789 86.7039C44.8595 84.9533 43.6567 82.0093 44.5102 80.3701C45.6875 84.444 46.9829 88.4799 48.2111 92.5311C49.06 92.5311 49.9066 92.5311 50.7555 92.5311C50.7555 86.5342 50.7555 80.5398 50.7555 74.543C49.9852 74.543 49.2127 74.543 48.4424 74.543C48.2897 78.2191 48.75 82.2044 48.2111 85.6905C47.2627 81.9282 46.0044 78.2698 44.9728 74.543Z" stroke="#FEFFFF" stroke-width="0.3"/>
<path d="M61.1645 74.5435C58.8908 73.9203 57.001 75.3745 54.6879 74.5435C52.3749 73.7125 50.8991 77.1252 53.7627 76.8237C56.6263 76.5222 55.4906 79.6866 55.6132 81.8908C55.7357 84.095 55.6455 86.517 55.6132 88.7313C55.5808 90.9456 54.8475 93.4234 57.9262 92.5316C57.9262 87.2948 57.9262 82.0605 57.9262 76.8237C59.0064 76.8237 60.0843 76.8237 61.1645 76.8237C61.1645 76.0636 61.1645 75.3036 61.1645 74.5435Z" stroke="#FEFFFF" stroke-width="0.3"/>
<path d="M66.2531 82.6508C64.4373 80.1857 65.8784 73.672 61.627 74.5435C61.9508 76.5982 62.5846 78.6833 63.2507 80.6189C63.9192 82.552 64.2454 84.6675 65.0202 86.5347C65.7951 88.402 63.4982 92.3492 66.0218 92.5316C68.5453 92.714 66.91 88.1207 67.4605 86.2535C68.011 84.3863 68.6101 82.1847 69.1861 80.2896C69.7597 78.392 70.4814 76.4994 70.8792 74.5435C70.0303 74.5435 69.1837 74.5435 68.3349 74.5435C67.7959 77.2975 67.0442 79.978 66.2531 82.6508Z" stroke="#FEFFFF" stroke-width="0.3"/>
<path d="M24.6178 76.3167C21.9323 75.7061 21.8444 81.3204 22.0734 83.1572C22.3024 84.994 21.2893 89.9724 23.9239 90.5045C26.5585 91.034 26.6741 85.483 26.4683 83.6639C26.2624 81.8449 27.0026 76.8589 24.6178 76.3167Z" stroke="white" stroke-width="0.3"/>
<path d="M51.6805 99.1187C47.177 98.5031 46.1916 103.894 46.3605 107.733C46.5293 111.571 45.8632 117.049 50.2927 117.867C54.7222 118.685 55.77 112.749 55.6127 109.253C55.4555 105.757 55.777 99.6786 51.6805 99.1187ZM51.2179 101.399C53.7785 101.685 52.7468 106.932 53.0684 108.746C53.3899 110.56 53.073 116.235 50.524 115.587C47.975 114.938 48.9557 110.089 48.6735 108.239C48.3913 106.39 48.7406 101.12 51.2179 101.399Z" stroke="#FEFFFF" stroke-width="0.3"/>
<path d="M17.6783 99.625C16.8294 99.625 15.9828 99.625 15.1339 99.625C15.5132 104.051 14.6296 107.517 15.1339 112.039C15.6381 116.562 10.0428 116.402 10.9704 111.533C10.2071 111.629 9.32809 111.305 8.6573 111.786C8.64573 115.08 10.0521 118.262 13.5147 117.866C16.9774 117.471 17.5372 114.228 17.447 110.773C17.3567 107.317 17.3868 103.053 17.6783 99.625Z" stroke="#FEFFFF" stroke-width="0.3"/>
<path d="M22.0732 99.6251C18.2659 98.6345 19.8966 103.722 19.7601 106.466C19.6236 109.209 19.4502 113.182 20.3962 115.65C21.3399 118.12 24.7587 118.758 26.6808 117.086C28.6007 115.414 28.5405 112.055 28.5498 109.253C28.559 106.45 28.5428 102.529 28.5498 99.6251C27.7795 99.6251 27.007 99.6251 26.2367 99.6251C26.2853 102.23 26.1719 106.57 26.2367 108.999C26.3015 111.429 26.7456 115.845 23.9283 115.581C21.1133 115.315 22.2906 110.788 21.8419 108.492C21.3931 106.197 22.5867 102.126 22.0732 99.6251Z" stroke="#FEFFFF" stroke-width="0.3"/>
<path d="M33.8693 99.625C32.8677 99.625 31.8639 99.625 30.8623 99.625C30.8623 105.622 30.8623 111.616 30.8623 117.613C31.6326 117.613 32.4051 117.613 33.1754 117.613C33.328 113.597 32.8677 109.278 33.4067 105.452C34.5748 109.531 35.8285 113.587 37.1076 117.613C37.9565 117.613 38.8031 117.613 39.652 117.613C39.652 111.616 39.652 105.622 39.652 99.625C38.8817 99.625 38.1092 99.625 37.3389 99.625C37.1862 103.387 37.6465 107.456 37.1076 111.026C36.2263 107.15 34.8315 103.458 33.8693 99.625Z" stroke="#FEFFFF" stroke-width="0.3"/>
<path d="M44.5102 99.625C43.6613 99.625 42.8147 99.625 41.9658 99.625C41.9658 105.622 41.9658 111.616 41.9658 117.613C46.0808 118.368 43.8995 113.116 44.2789 110.012C44.6582 106.909 43.9042 102.736 44.5102 99.625Z" stroke="#FEFFFF" stroke-width="0.3"/>
<path d="M66.4844 117.614C66.6139 114.972 63.7341 112.203 64.9231 109.824C66.1097 107.442 66.8337 104.055 65.27 101.463C63.7064 98.8711 59.9083 99.7629 57.4634 99.6261C57.3269 101.298 57.6207 103.102 57.6947 104.693C57.7687 106.284 57.6091 108.265 57.6947 109.76C57.7803 111.255 57.5652 113.5 57.6462 114.769C57.7248 116.038 56.5659 118.389 59.0803 117.612C61.5946 116.834 57.8636 109.912 62.3209 111.534C62.9847 113.543 63.6046 115.57 64.1713 117.614C64.9416 117.614 65.7141 117.614 66.4844 117.614ZM60.0078 109.253C60.0078 106.804 60.0078 104.356 60.0078 101.906C64.9624 100.219 64.9878 110.794 60.0078 109.253Z" stroke="#FEFFFF" stroke-width="0.3"/>
<path d="M78.7428 99.625C76.3534 99.625 73.9617 99.625 71.5723 99.625C71.5723 105.622 71.5723 111.616 71.5723 117.613C72.4096 117.507 73.3718 117.859 74.1166 117.36C73.9131 115.632 73.624 113.329 73.8923 111.54C74.1606 109.749 77.3919 111.289 78.5115 110.773C79.3511 107.378 75.6803 108.746 73.8853 108.492C74.2716 106.767 73.3603 104.059 73.9038 102.432C74.4497 100.808 77.6371 102.554 78.7428 101.905C78.7428 101.145 78.7428 100.385 78.7428 99.625Z" stroke="#FEFFFF" stroke-width="0.3"/>
<path d="M89.3836 117.614C89.3258 114.997 88.2525 113.043 88.0721 110.436C87.8917 107.829 86.9965 105.906 86.8393 103.173C86.682 100.442 85.5648 98.5971 82.4444 99.6257C82.1992 101.579 81.7343 103.494 81.5146 105.448C81.2948 107.399 80.6981 109.015 80.5778 111.009C80.4552 113.003 79.412 114.576 79.5161 116.681C79.6202 118.787 82.9672 117.155 82.2131 115.08C81.4591 113.008 86.2355 112.767 86.5316 114.15C86.8277 115.534 86.6797 119.017 89.3836 117.614ZM84.5262 102.413C84.9472 105.46 85.7961 108.394 85.914 111.533C84.9125 111.533 83.9086 111.533 82.907 111.533C83.3003 108.483 83.4691 105.159 84.5262 102.413Z" stroke="#FEFFFF" stroke-width="0.3"/>
<path d="M93.0843 99.6255C89.0387 98.8249 91.1529 104.143 90.7712 107.226C90.3895 110.309 91.058 114.434 90.7712 117.614C91.5415 117.614 92.314 117.614 93.0843 117.614C93.0843 111.617 93.0843 105.622 93.0843 99.6255Z" stroke="#FEFFFF" stroke-width="0.3"/>
<path d="M102.105 110.52C104.132 108.306 104.527 105.096 103.331 102.083C102.138 99.071 98.0459 99.5296 95.3975 99.6259C95.3975 105.623 95.3975 111.617 95.3975 117.614C96.1677 117.614 96.9403 117.614 97.7105 117.614C97.9858 115.202 96.48 110.358 100.255 111.533C101.141 113.76 100.993 118.98 104.418 117.361C103.514 115.126 103.01 112.755 102.105 110.52ZM97.7105 109.253C97.7105 106.803 97.7105 104.356 97.7105 101.906C102.778 100.135 102.799 110.966 97.7105 109.253Z" stroke="#FEFFFF" stroke-width="0.3"/>
<path d="M51.2175 101.399C48.7402 101.12 48.3909 106.39 48.6731 108.239C48.9553 110.089 47.9746 114.938 50.5236 115.587C53.0726 116.235 53.3895 110.56 53.068 108.746C52.7464 106.932 53.7781 101.685 51.2175 101.399Z" stroke="white" stroke-width="0.3"/>
<path d="M60.0068 109.253C64.9869 110.794 64.9614 100.219 60.0068 101.906C60.0068 104.356 60.0068 106.803 60.0068 109.253Z" stroke="white" stroke-width="0.3"/>
<path d="M97.7109 109.253C102.8 110.965 102.779 100.134 97.7109 101.905C97.7109 104.355 97.7109 106.803 97.7109 109.253Z" stroke="white" stroke-width="0.3"/>
<path d="M84.5264 102.413C83.4693 105.159 83.3004 108.483 82.9072 111.534C83.9088 111.534 84.9127 111.534 85.9142 111.534C85.7962 108.395 84.9474 105.461 84.5264 102.413Z" stroke="white" stroke-width="0.3"/>
<path d="M120.148 114.573C119.986 118.178 120.386 122.095 120.097 125.665C119.808 129.232 119.97 132.728 119.917 136.361C119.863 139.994 120.03 143.628 119.917 147.256C119.803 150.884 120.164 154.529 119.917 158.15C119.669 161.768 119.713 165.023 119.685 168.791C119.658 172.558 119.843 175.75 119.685 179.685C119.528 183.619 124.355 182.028 127.319 182.218C130.282 182.408 134.267 182.094 137.265 182.218C140.262 182.342 143.64 182.228 146.267 181.185C148.897 180.143 150.243 178.666 151.428 175.943C152.612 173.219 153.23 169.956 153.225 166.764C153.22 163.572 153.426 159.216 152.994 156.123C152.559 153.03 152.392 150.656 149.686 148.852C146.977 147.05 150.912 145.624 151.622 142.966C152.334 140.311 152.852 136.311 152.762 133.321C152.672 130.332 152.563 126.265 151.819 123.461C151.076 120.653 149.966 118.796 147.727 117.048C145.488 115.3 142.754 115.026 139.86 114.771C136.969 114.515 133.224 114.558 130.094 114.573C126.965 114.588 123.324 114.563 120.148 114.573ZM132.87 128.001C134.54 128.145 136.721 127.595 138.13 128.573C139.541 129.549 139.638 131.322 139.807 133.07C139.978 134.816 139.737 137.456 139.578 139.148C139.418 140.841 138.449 142.386 136.8 142.439C135.153 142.493 132.38 143.075 132.639 140.668C132.898 138.262 132.541 136.612 132.639 134.335C132.736 132.057 132.592 130.185 132.87 128.001ZM132.639 153.589C135.417 152.812 139.953 153.711 139.99 157.192C140.024 160.673 141.276 165 139.173 167.587C137.07 170.174 131.281 169.069 132.407 165.244C133.534 161.418 132.044 157.504 132.639 153.589Z" stroke="white" stroke-width="0.3"/>
<path d="M25.3119 124.454C20.7505 123.74 19.6865 129.23 19.9918 133.068C20.2971 136.907 19.1707 142.154 23.6927 143.203C28.2148 144.251 29.2788 138.082 29.0128 134.589C28.7468 131.095 29.4916 125.108 25.3119 124.454ZM24.6179 126.735C26.9935 126.95 26.6997 132.004 26.6997 133.828C26.6997 135.653 27.012 141.064 24.3843 140.92C21.7567 140.775 22.409 135.648 22.3049 133.828C22.2008 132.009 21.9857 126.494 24.6179 126.735Z" stroke="#FEFFFF" stroke-width="0.3"/>
<path d="M16.0595 134.589C18.2476 133.233 18.6709 129.39 17.3895 126.798C16.108 124.204 11.8427 125.08 9.58287 124.961C9.43483 130.852 9.88357 136.909 9.35156 142.696C11.6924 142.997 15.4997 143.583 17.2692 141.487C19.0387 139.392 17.9909 135.916 16.0595 134.589ZM11.8959 134.082C11.8959 131.718 11.8959 129.352 11.8959 126.988C16.8436 125.491 16.5845 135.268 11.8959 134.082ZM13.9777 136.109C16.3833 136.722 15.9554 140.732 13.4642 140.867C10.9707 141.001 10.9985 135.349 13.9777 136.109Z" stroke="#FEFFFF" stroke-width="0.3"/>
<path d="M40.115 142.695C39.4373 140.03 39.0626 137.699 38.6763 134.897C38.2877 132.095 37.529 130.028 37.3231 127.005C37.115 123.985 32.7155 124.223 32.7086 127.236C32.6993 130.248 31.5613 132.295 31.323 135.092C31.0848 137.892 30.4626 140.035 29.9375 142.695C31.7139 143.605 33.0416 142.508 32.8682 140.332C32.6947 138.155 35.5282 139.034 36.8767 138.895C37.4388 140.169 37.2399 141.674 37.8019 142.949C38.5652 142.852 39.4442 143.177 40.115 142.695ZM34.7949 127.748C35.5652 129.136 35.7757 131.069 35.9515 132.815C36.125 134.563 37.6793 136.673 35.2576 136.868C32.8358 137.063 33.576 135.082 33.946 133.152C34.3161 131.219 34.5868 129.693 34.7949 127.748Z" stroke="#FEFFFF" stroke-width="0.3"/>
<path d="M46.1293 136.869C47.4361 138.434 46.2865 142.194 48.4423 142.949C50.5981 143.704 50.1887 139.975 48.8887 138.153C47.5865 136.331 49.5549 134.365 49.8302 132.308C50.1054 130.251 49.9528 127.14 48.1393 125.799C46.3282 124.457 43.4368 125.103 41.2718 124.961C40.9248 127.593 41.6326 129.714 41.5031 132.308C41.3736 134.902 42.0953 136.947 41.2718 139.655C40.4484 142.364 43.5964 144.368 43.8 141.447C44.0035 138.525 42.5556 136.334 46.1293 136.869ZM43.5849 134.588C42.9095 131.703 43.5317 125.093 46.534 127.811C49.5364 130.527 46.6219 135.602 43.5849 134.588Z" stroke="#FEFFFF" stroke-width="0.3"/>
<path d="M51.9113 124.961C51.8303 127.745 52.4155 129.937 52.1426 132.815C51.8696 135.693 52.6815 137.396 51.9113 140.416C51.141 143.436 54.8119 143.332 56.7641 142.691C58.714 142.047 59.7086 140.78 60.2406 138.645C60.7726 136.509 60.7634 133.453 60.4696 131.295C60.1759 129.136 60.273 127.018 58.4387 125.665C56.6045 124.31 54.037 125.242 51.9113 124.961ZM54.4556 127.241C56.6184 126.471 57.805 128.478 58.1057 130.337C58.4064 132.197 58.0155 135.207 58.1565 136.869C58.2976 138.531 56.4449 141.616 54.9183 140.669C53.3916 139.721 54.6684 136.159 54.2243 134.335C53.7802 132.511 54.6661 129.182 54.4556 127.241Z" stroke="#FEFFFF" stroke-width="0.3"/>
<path d="M24.6175 126.734C21.9852 126.494 22.2003 132.009 22.3044 133.828C22.4085 135.647 21.7562 140.775 24.3839 140.919C27.0115 141.064 26.6993 135.652 26.6993 133.828C26.6993 132.004 26.993 126.95 24.6175 126.734Z" stroke="white" stroke-width="0.3"/>
<path d="M11.8955 134.081C16.5841 135.267 16.8432 125.49 11.8955 126.987C11.8955 129.351 11.8955 131.718 11.8955 134.081Z" stroke="white" stroke-width="0.3"/>
<path d="M43.585 134.588C46.6221 135.601 49.5366 130.527 46.5342 127.811C43.5318 125.092 42.9096 131.702 43.585 134.588Z" stroke="white" stroke-width="0.3"/>
<path d="M54.4563 127.241C54.6668 129.182 53.7809 132.511 54.225 134.335C54.6691 136.159 53.3923 139.721 54.9189 140.669C56.4455 141.617 58.2983 138.531 58.1572 136.869C58.0161 135.207 58.407 132.197 58.1063 130.337C57.8056 128.478 56.619 126.471 54.4563 127.241Z" stroke="white" stroke-width="0.3"/>
<path d="M34.7955 127.748C34.5874 129.693 34.3167 131.219 33.9466 133.152C33.5765 135.082 32.8364 137.063 35.2581 136.868C37.6799 136.673 36.1255 134.563 35.9521 132.815C35.7763 131.069 35.5658 129.136 34.7955 127.748Z" stroke="white" stroke-width="0.3"/>
<path d="M132.87 128.001C132.592 130.185 132.736 132.057 132.638 134.335C132.541 136.612 132.897 138.262 132.638 140.669C132.379 143.075 135.153 142.493 136.8 142.44C138.449 142.386 139.418 140.841 139.578 139.148C139.737 137.456 139.978 134.816 139.807 133.071C139.638 131.322 139.541 129.549 138.13 128.574C136.721 127.596 134.54 128.145 132.87 128.001Z" stroke="#FEFFFF" stroke-width="0.3"/>
<path d="M13.9781 136.109C10.9989 135.349 10.9711 141.001 13.4646 140.867C15.9558 140.733 16.3837 136.722 13.9781 136.109Z" stroke="white" stroke-width="0.3"/>
<path d="M114.596 144.976C105.767 144.39 96.6905 144.887 87.7644 144.722C87.6672 167.202 87.5585 189.68 87.3018 212.114C91.4329 212.677 95.7977 212.218 100.024 212.368C100.544 203.792 100.116 194.955 100.255 186.272C104.881 186.272 109.507 186.272 114.133 186.272C114.076 181.768 114.217 176.751 114.133 172.591C112.26 172.487 110.719 172.731 108.813 172.591C106.907 172.452 105.522 172.857 103.493 172.591C101.465 172.325 100.23 173.574 100.486 170.058C100.743 166.541 100.105 162.366 100.718 158.91C105.221 159.498 109.991 158.996 114.596 159.164C114.596 154.433 114.596 149.706 114.596 144.976Z" stroke="white" stroke-width="0.3"/>
<path d="M132.638 153.589C132.043 157.504 133.533 161.418 132.407 165.244C131.28 169.069 137.07 170.174 139.172 167.587C141.275 165 140.024 160.673 139.989 157.192C139.952 153.711 135.416 152.811 132.638 153.589Z" stroke="#FEFFFF" stroke-width="0.3"/>
<path d="M79.4374 170.564C75.6463 169.705 73.2985 170.972 69.2599 170.311C65.2213 169.65 66.1928 174.565 66.2529 178.165C66.3131 181.765 66.1512 185.679 66.2529 189.312C66.3547 192.945 66.1072 196.654 66.0216 200.207C65.936 203.759 65.9985 207.873 66.0216 211.354C66.0447 214.835 65.825 218.608 65.3254 221.739C64.8258 224.873 59.8434 225.182 58.6036 222.519C57.3615 219.859 58.1826 215.175 57.9259 212.114C54.07 212.114 50.2164 212.114 46.3605 212.114C46.1246 218.608 45.5672 226.345 47.9103 232.208C50.2511 238.068 56.4016 239.162 61.6268 239.223C66.852 239.284 73.7103 239.18 76.2523 233.201C78.7944 227.222 78.7527 221.019 78.9748 214.141C79.1969 207.262 79.2917 199.479 79.2061 192.353C79.1205 185.226 79.3842 177.699 79.4374 170.564Z" stroke="white" stroke-width="0.3"/>
<path d="M104.187 0.817786C102.057 0.437756 99.3714 0.919128 97.4839 1.58291C95.5988 2.24923 93.9935 2.82941 92.2124 3.66294C90.4314 4.49394 88.7475 5.11213 86.8901 5.68724C85.0327 6.26488 83.173 6.89067 81.304 7.42271C79.435 7.95728 77.4805 8.73001 75.6624 9.35073C73.8444 9.97144 72.1674 10.7112 70.421 11.4637C68.677 12.2187 66.9213 12.7178 65.2536 13.6577C63.5836 14.5977 61.71 14.8333 60.0608 15.8239C58.4116 16.812 56.4986 17.0805 54.9234 18.3042C53.3506 19.5305 50.3991 18.1294 48.9233 19.0795C47.4499 20.0321 47.1839 22.3376 45.4884 23.1712C43.793 24.0047 42.6781 25.2867 41.0936 26.2114C39.5092 27.1361 38.3827 28.6233 36.8954 29.7203C35.4081 30.8199 34.1752 31.9169 32.5353 32.7986C30.893 33.6802 29.5768 34.7215 27.7819 35.4461C25.987 36.1707 24.2822 36.7914 22.3092 37.3057C20.3384 37.8226 18.0254 38.3496 15.828 38.3141C13.6305 38.2786 11.1602 38.0481 8.88874 38.0607C6.61731 38.0734 5.08606 37.06 2.79843 37.7238C0.510808 38.3901 1.16078 41.1795 1.02431 43.6345C0.887839 46.0895 1.3759 48.6762 1.25562 51.2351C1.13534 53.794 1.29263 56.553 1.48692 59.0891C1.68122 61.6251 1.41291 64.1612 1.25562 66.6897C1.09833 69.2181 1.49155 71.7542 1.48692 74.2903C1.4823 76.8263 1.86858 79.2813 1.71823 81.8909C1.56788 84.5004 1.89634 87.1783 1.94954 89.7448C2.00274 92.3113 2.14615 94.7739 2.18084 97.3454C2.21554 99.917 2.16465 102.412 2.41215 104.946C2.65965 107.48 2.00043 109.967 2.18084 112.547C2.36126 115.126 1.74136 117.591 1.71823 120.147C1.6951 122.704 1.73442 125.427 1.71823 128.001C1.70204 130.575 1.73905 133.289 1.71823 135.855C1.69741 138.422 2.33119 140.4 2.41215 142.949C2.49311 145.498 2.28725 148.505 2.41215 151.056C2.53706 153.608 2.15309 156.432 2.41215 158.91C2.67353 161.386 2.30806 163.775 2.41215 166.258C2.51624 168.738 3.22404 170.666 3.33738 173.098C3.45072 175.53 3.09913 178.403 3.56869 180.699C4.03824 182.994 2.98348 186.706 3.571 188.803C4.1562 190.901 2.73367 194.605 4.80155 195.31C6.86944 196.014 9.63818 195.145 11.8957 195.393C14.1533 195.641 16.7277 195.315 19.0662 195.393C21.4048 195.472 23.9468 195.312 26.2368 195.647C28.5267 195.981 31.0942 195.464 33.4073 195.647C35.7203 195.829 38.2948 195.495 40.5778 195.647C42.8608 195.799 45.5625 195.421 47.7483 195.647C49.9318 195.872 53.1169 196.688 52.8371 193.62C52.5572 190.552 53.0707 188.765 53.0684 186.019C53.0661 183.273 52.9943 180.757 53.0684 178.165C53.1424 175.571 52.8417 172.789 53.1193 170.367C53.3968 167.945 52.4855 164.314 55.1501 164.484C57.8148 164.654 59.8387 164.446 62.3206 164.484C64.8026 164.522 67.1341 164.552 69.4912 164.484C71.8482 164.416 74.2815 164.621 76.4304 164.737C78.5792 164.854 82.028 165.568 81.7504 162.711C81.4729 159.853 82.0349 157.58 81.9817 154.857C81.9285 152.133 82.0234 149.914 82.213 147.256C82.4027 144.598 82.1691 142.186 82.213 139.402C82.2593 136.62 85.028 136.843 87.2509 137.178C89.4715 137.512 92.0736 137.34 94.4723 137.375C96.871 137.411 98.9597 137.332 101.412 137.629C103.863 137.925 105.786 137.195 108.351 137.375C110.916 137.555 112.218 136.463 111.589 133.575C110.96 130.687 112.142 128.467 111.82 125.721C111.499 122.975 111.931 120.515 111.82 117.867C111.709 115.219 111.788 112.605 111.837 110.031C111.885 107.459 111.601 104.523 114.365 104.946C117.129 105.369 119.153 104.68 121.767 104.946C124.38 105.212 126.363 104.667 128.937 104.946C131.511 105.225 133.448 104.467 136.108 104.946C138.768 105.425 140.595 104.467 140.04 101.399C139.485 98.331 140.343 96.5347 140.271 93.7985C140.199 91.0622 140.32 88.3032 140.271 85.6912C140.223 83.0791 140.327 80.2795 140.271 77.8372C140.216 75.3949 141.071 71.929 138.421 72.0101C135.77 72.0911 133.757 71.9898 131.25 72.0101C128.743 72.0303 126.275 72.0329 123.848 72.0101C121.422 71.9873 119.012 72.0937 116.678 72.0101C114.344 71.9265 111.897 72.2862 112.283 69.4765C112.669 66.6669 112.172 64.3461 112.283 61.6226C112.394 58.899 112.345 56.4035 112.514 53.7686C112.683 51.1338 112.399 48.5268 112.514 45.9147C112.63 43.3026 112.378 40.6475 112.514 38.0607C112.651 35.474 112.743 33.0849 112.746 30.4601C112.748 27.8354 112.63 24.9472 112.746 22.3528C112.861 19.7585 112.961 17.3668 112.977 14.7522C112.993 12.1376 112.776 9.4774 112.977 6.89827C113.178 4.31913 111.073 3.76935 109.292 3.08023C107.511 2.39111 105.973 1.13448 104.187 0.817786ZM23.2298 48.9549C27.1944 49.7327 26.7063 55.9171 26.9307 59.3424C27.1551 62.7677 25.7395 68.7874 21.3793 67.7031C17.0192 66.6187 17.9213 61.1387 17.6784 57.3156C17.4355 53.4925 18.6777 48.0606 23.2298 48.9549ZM11.8957 49.4616C11.8957 54.6123 11.8957 59.7655 11.8957 64.9162C13.7254 65.2278 17.5836 63.7026 16.7532 67.1964C14.3638 67.1964 11.9721 67.1964 9.58267 67.1964C9.58267 61.2856 9.58267 55.3724 9.58267 49.4616C10.3529 49.4616 11.1255 49.4616 11.8957 49.4616ZM37.3395 67.4497C36.6687 66.9683 35.7897 67.2926 35.0264 67.1964C34.2839 64.8858 34.462 60.3533 31.0942 61.3692C30.6362 63.2719 31.5707 65.5014 30.8629 67.4497C30.1921 66.9683 29.3131 67.2926 28.5498 67.1964C28.9639 61.3591 28.7996 55.3116 28.5498 49.4616C31.078 49.606 34.7211 48.6813 36.3564 51.2984C37.9918 53.913 37.1105 57.4524 35.8938 59.7858C34.6772 62.1192 38.0843 64.9745 37.3395 67.4497ZM45.4352 49.4616C46.3119 55.4053 47.3828 61.2983 48.4422 67.1964C46.9387 67.3433 45.4214 67.3382 45.6827 65.1518C45.9441 62.9654 43.9896 63.3378 42.4282 63.3961C40.8669 63.4543 41.1306 65.8941 41.0404 67.1964C40.1915 67.1964 39.3449 67.1964 38.496 67.1964C39.4189 61.2654 40.6241 55.4104 41.503 49.4616C42.8145 49.4616 44.1237 49.4616 45.4352 49.4616ZM52.1431 49.4616C52.1431 55.3724 52.1431 61.2856 52.1431 67.1964C51.3729 67.1964 50.6003 67.1964 49.8301 67.1964C49.8301 61.2856 49.8301 55.3724 49.8301 49.4616C50.6003 49.4616 51.3729 49.4616 52.1431 49.4616ZM57.4632 49.4616C58.474 53.2721 59.8179 56.9938 60.7015 60.8625C61.2404 57.2928 60.7801 53.2239 60.9328 49.4616C61.7031 49.4616 62.4756 49.4616 63.2459 49.4616C63.0932 55.4357 63.5535 61.5897 63.0146 67.4497C60.0492 67.926 59.8387 64.6907 59.0985 62.3649C58.3584 60.0366 57.6991 57.6373 57.0006 55.2888C56.4616 59.0283 56.9219 63.2669 56.7693 67.1964C55.999 67.1964 55.2265 67.1964 54.4562 67.1964C54.4562 61.2856 54.4562 55.3724 54.4562 49.4616C55.4578 49.4616 56.4616 49.4616 57.4632 49.4616ZM17.9097 81.6375C14.0839 83.2362 16.8064 76.8061 14.0515 76.4894C11.299 76.1727 11.484 81.0193 11.6644 83.1576C11.8448 85.2959 10.7855 90.2389 13.7485 90.5023C16.7092 90.7658 14.1718 83.7555 17.9097 85.4378C18.5782 89.1748 16.7902 93.6465 12.821 92.7851C8.85174 91.9237 9.35367 86.9225 9.35136 83.411C9.34905 79.8995 8.92344 74.9211 12.8719 74.0926C16.8226 73.2667 18.5759 77.9613 17.9097 81.6375ZM25.0802 74.0369C29.2785 74.7843 28.5267 80.5633 28.7811 84.171C29.0356 87.7788 27.9785 93.763 23.4611 92.7851C18.9437 91.8071 20.0493 86.4259 19.7602 82.6509C19.471 78.876 20.5096 73.2236 25.0802 74.0369ZM33.176 74.5436C32.8591 79.0026 33.597 82.1113 33.176 86.7046C32.755 91.2979 37.7836 91.2953 37.3395 86.7046C36.8954 82.1138 37.6726 79.0001 37.3395 74.5436C40.9571 73.5606 39.4398 77.4977 39.6526 80.1174C39.8654 82.7396 39.5508 85.8888 39.4236 88.4806C39.294 91.0724 37.6194 92.8231 35.2577 92.7851C32.8961 92.7471 31.3417 91.2852 31.0988 88.7263C30.8583 86.1649 30.6825 82.9803 30.8629 80.3707C31.0433 77.7612 29.482 73.5505 33.176 74.5436ZM44.9726 74.5436C46.0043 78.2704 47.2626 81.9289 48.2109 85.6912C48.7499 82.205 48.2896 78.2198 48.4422 74.5436C49.2125 74.5436 49.985 74.5436 50.7553 74.5436C50.7553 80.5405 50.7553 86.5348 50.7553 92.5317C49.9064 92.5317 49.0598 92.5317 48.2109 92.5317C46.9827 88.4806 45.6874 84.4447 44.51 80.3707C43.6565 82.0099 44.8593 84.9539 44.2787 86.7046C43.6981 88.4552 45.6133 91.8122 43.5778 92.5241C41.5423 93.2386 41.8292 89.2305 41.9656 87.4646C42.1021 85.6988 42.4097 83.1754 42.1206 81.2144C41.8315 79.2534 42.0142 76.6211 41.9656 74.5436C42.9672 74.5436 43.9711 74.5436 44.9726 74.5436ZM61.1641 74.5436C61.1641 75.3037 61.1641 76.0637 61.1641 76.8238C60.0839 76.8238 59.006 76.8238 57.9258 76.8238C57.9258 82.0606 57.9258 87.2949 57.9258 92.5317C54.8471 93.4235 55.5804 90.9457 55.6127 88.7314C55.6451 86.5171 55.7353 84.095 55.6127 81.8909C55.4902 79.6867 56.6259 76.5223 53.7623 76.8238C50.8987 77.1253 52.3744 73.7126 54.6875 74.5436C57.0006 75.3746 58.8904 73.9204 61.1641 74.5436ZM66.2529 82.6509C67.0439 79.978 67.7957 77.2976 68.3346 74.5436C69.1835 74.5436 70.0301 74.5436 70.879 74.5436C70.4811 76.4995 69.7595 78.3921 69.1858 80.2897C68.6099 82.1847 68.0108 84.3864 67.4603 86.2536C66.9098 88.1208 68.5451 92.7141 66.0216 92.5317C63.498 92.3493 65.7949 88.402 65.02 86.5348C64.2451 84.6676 63.919 82.5521 63.2505 80.619C62.5843 78.6834 61.9506 76.5983 61.6267 74.5436C65.8781 73.6721 64.4371 80.1858 66.2529 82.6509ZM51.6805 99.1189C55.777 99.6788 55.4555 105.757 55.6127 109.253C55.77 112.749 54.7222 118.685 50.2927 117.867C45.8632 117.049 46.5293 111.571 46.3605 107.733C46.1916 103.895 47.177 98.5032 51.6805 99.1189ZM17.6784 99.6256C17.387 103.053 17.3569 107.317 17.4471 110.773C17.5373 114.229 16.9775 117.472 13.5149 117.867C10.0522 118.262 8.64587 115.08 8.65744 111.787C9.32823 111.305 10.2072 111.629 10.9705 111.533C10.043 116.403 15.6383 116.562 15.134 112.04C14.6298 107.518 15.5134 104.052 15.134 99.6256C15.9829 99.6256 16.8295 99.6256 17.6784 99.6256ZM22.0732 99.6256C22.5867 102.126 21.3932 106.198 21.8419 108.493C22.2907 110.788 21.1133 115.316 23.9283 115.582C26.7456 115.845 26.3015 111.429 26.2368 109C26.172 106.57 26.2853 102.23 26.2368 99.6256C27.007 99.6256 27.7796 99.6256 28.5498 99.6256C28.5429 102.529 28.5591 106.451 28.5498 109.253C28.5406 112.055 28.6007 115.415 26.6809 117.087C24.7587 118.759 21.34 118.12 20.3963 115.65C19.4502 113.183 19.6237 109.21 19.7602 106.466C19.8966 103.722 18.2659 98.635 22.0732 99.6256ZM33.8699 99.6256C34.8321 103.459 36.2269 107.15 37.1082 111.026C37.6471 107.457 37.1868 103.388 37.3395 99.6256C38.1097 99.6256 38.8823 99.6256 39.6526 99.6256C39.6526 105.622 39.6526 111.617 39.6526 117.614C38.8037 117.614 37.9571 117.614 37.1082 117.614C35.8291 113.588 34.5754 109.532 33.4073 105.453C32.8683 109.278 33.3286 113.598 33.176 117.614C32.4057 117.614 31.6332 117.614 30.8629 117.614C30.8629 111.617 30.8629 105.622 30.8629 99.6256C31.8645 99.6256 32.8683 99.6256 33.8699 99.6256ZM44.51 99.6256C43.904 102.737 44.658 106.91 44.2787 110.013C43.8994 113.117 46.0806 118.369 41.9656 117.614C41.9656 111.617 41.9656 105.622 41.9656 99.6256C42.8145 99.6256 43.6611 99.6256 44.51 99.6256ZM66.4842 117.614C65.7139 117.614 64.9413 117.614 64.1711 117.614C63.6044 115.569 62.9845 113.542 62.3206 111.533C57.8634 109.912 61.5943 116.833 59.08 117.611C56.5657 118.389 57.7246 116.038 57.6459 114.769C57.565 113.499 57.7801 111.255 57.6945 109.76C57.6089 108.265 57.7685 106.284 57.6945 104.693C57.6205 103.102 57.3267 101.298 57.4632 99.6256C59.9081 99.7624 63.7062 98.8706 65.2698 101.462C66.8334 104.054 66.1095 107.442 64.9228 109.823C63.7339 112.202 66.6137 114.971 66.4842 117.614ZM78.7434 99.6256C78.7434 100.386 78.7434 101.146 78.7434 101.906C77.6378 102.554 74.4504 100.809 73.9045 102.433C73.3609 104.059 74.2723 106.768 73.886 108.493C75.6809 108.746 79.3518 107.378 78.5121 110.773C77.3926 111.29 74.1612 109.75 73.8929 111.541C73.6246 113.329 73.9137 115.632 74.1173 117.36C73.3725 117.859 72.4102 117.507 71.5729 117.614C71.5729 111.617 71.5729 105.622 71.5729 99.6256C73.9623 99.6256 76.354 99.6256 78.7434 99.6256ZM89.3836 117.614C86.6796 119.017 86.8276 115.534 86.5315 114.15C86.2355 112.767 81.459 113.008 82.213 115.08C82.9671 117.155 79.6201 118.787 79.516 116.681C79.4119 114.576 80.4551 113.003 80.5777 111.009C80.698 109.015 81.2948 107.398 81.5145 105.448C81.7342 103.494 82.1992 101.579 82.4443 99.6256C85.5647 98.597 86.6819 100.441 86.8392 103.173C86.9965 105.906 87.8916 107.829 88.072 110.436C88.2525 113.043 89.3257 114.997 89.3836 117.614ZM93.0845 99.6256C93.0845 105.622 93.0845 111.617 93.0845 117.614C92.3142 117.614 91.5416 117.614 90.7714 117.614C91.0582 114.434 90.3897 110.31 90.7714 107.226C91.153 104.143 89.0389 98.825 93.0845 99.6256ZM102.105 110.52C103.01 112.754 103.514 115.126 104.419 117.36C100.993 118.979 101.141 113.76 100.255 111.533C96.48 110.358 97.9859 115.202 97.7106 117.614C96.9403 117.614 96.1678 117.614 95.3975 117.614C95.3975 111.617 95.3975 105.622 95.3975 99.6256C98.046 99.5293 102.138 99.0708 103.331 102.083C104.527 105.095 104.132 108.305 102.105 110.52ZM25.3115 124.454C29.4913 125.108 28.7464 131.095 29.0124 134.588C29.2785 138.082 28.2144 144.251 23.6924 143.202C19.1703 142.153 20.2968 136.907 19.9915 133.068C19.6862 129.23 20.7502 123.74 25.3115 124.454ZM16.0593 134.588C17.9907 135.916 19.0385 139.392 17.269 141.487C15.4995 143.582 11.6922 142.997 9.35136 142.696C9.88336 136.909 9.43463 130.851 9.58267 124.961C11.8425 125.08 16.1078 124.203 17.3893 126.798C18.6707 129.39 18.2474 133.233 16.0593 134.588ZM40.1152 142.696C39.4444 143.177 38.5654 142.853 37.8021 142.949C37.24 141.675 37.439 140.17 36.8769 138.895C35.5284 139.035 32.6949 138.156 32.8683 140.332C33.0418 142.508 31.7141 143.605 29.9377 142.696C30.4627 140.035 31.085 137.892 31.3232 135.093C31.5614 132.296 32.6995 130.248 32.7087 127.236C32.7157 124.224 37.1151 123.986 37.3233 127.005C37.5292 130.028 38.2879 132.095 38.6764 134.897C39.0627 137.7 39.4375 140.03 40.1152 142.696ZM46.1292 136.869C42.5555 136.334 44.0034 138.525 43.7999 141.447C43.5963 144.368 40.4483 142.364 41.2717 139.655C42.0952 136.947 41.3735 134.903 41.503 132.308C41.6326 129.714 40.9248 127.593 41.2717 124.961C43.4367 125.103 46.3281 124.457 48.1392 125.8C49.9527 127.14 50.1053 130.251 49.8301 132.308C49.5548 134.365 47.5864 136.331 48.8886 138.153C50.1886 139.975 50.598 143.704 48.4422 142.949C46.2864 142.194 47.436 138.434 46.1292 136.869ZM51.9118 124.961C54.0375 125.242 56.605 124.31 58.4393 125.665C60.2736 127.018 60.1764 129.136 60.4702 131.295C60.7639 133.453 60.7732 136.509 60.2412 138.645C59.7092 140.78 58.7146 142.047 56.7647 142.691C54.8124 143.332 51.1416 143.435 51.9118 140.415C52.6821 137.396 51.8702 135.693 52.1431 132.815C52.4161 129.937 51.8309 127.745 51.9118 124.961Z" fill="white" stroke="black"/>
<path d="M22.5364 51.2354C19.9967 50.9237 19.7677 56.2163 19.992 58.0759C20.2164 59.9355 19.3976 64.7872 21.9188 65.3395C24.4378 65.8893 24.6459 60.422 24.3869 58.5826C24.1278 56.7433 25.0553 51.5445 22.5364 51.2354Z" fill="white" stroke="black"/>
<path d="M32.7135 51.4884C30.0836 50.9969 31.3326 55.314 30.8631 57.5688C30.3935 59.8237 34.6843 59.0712 34.5802 56.8265C34.4784 54.5843 35.17 51.9469 32.7135 51.4884Z" fill="white" stroke="black"/>
<path d="M43.5856 52.2485C42.4568 54.1005 43.1877 55.8867 42.4128 58.0579C41.6356 60.2266 42.1815 62.3371 44.9734 61.3693C44.8092 58.2429 44.0366 55.2862 43.5856 52.2485Z" fill="white" stroke="black"/>
<path d="M24.6178 76.3167C21.9323 75.7061 21.8444 81.3204 22.0734 83.1572C22.3024 84.994 21.2893 89.9724 23.9239 90.5045C26.5585 91.034 26.6741 85.483 26.4683 83.6639C26.2624 81.8449 27.0026 76.8589 24.6178 76.3167Z" fill="white" stroke="black"/>
<path d="M51.2175 101.399C48.7402 101.12 48.3909 106.39 48.6731 108.239C48.9553 110.089 47.9746 114.938 50.5236 115.587C53.0726 116.235 53.3895 110.56 53.068 108.746C52.7464 106.932 53.7781 101.685 51.2175 101.399Z" fill="white" stroke="black"/>
<path d="M60.0068 109.253C64.9869 110.794 64.9614 100.219 60.0068 101.906C60.0068 104.356 60.0068 106.803 60.0068 109.253Z" fill="white" stroke="black"/>
<path d="M97.7109 109.253C102.8 110.965 102.779 100.134 97.7109 101.905C97.7109 104.355 97.7109 106.803 97.7109 109.253Z" fill="white" stroke="black"/>
<path d="M84.5264 102.413C83.4693 105.159 83.3004 108.483 82.9072 111.534C83.9088 111.534 84.9127 111.534 85.9142 111.534C85.7962 108.395 84.9474 105.461 84.5264 102.413Z" fill="white" stroke="black"/>
<path d="M120.148 114.573C119.986 118.178 120.386 122.095 120.097 125.665C119.808 129.232 119.97 132.728 119.917 136.361C119.863 139.994 120.03 143.628 119.917 147.256C119.803 150.884 120.164 154.529 119.917 158.15C119.669 161.768 119.713 165.023 119.685 168.791C119.658 172.558 119.843 175.75 119.685 179.685C119.528 183.619 124.355 182.028 127.319 182.218C130.282 182.408 134.267 182.094 137.265 182.218C140.262 182.342 143.64 182.228 146.267 181.185C148.897 180.143 150.243 178.666 151.428 175.943C152.612 173.219 153.23 169.956 153.225 166.764C153.22 163.572 153.426 159.216 152.994 156.123C152.559 153.03 152.392 150.656 149.686 148.852C146.977 147.05 150.912 145.624 151.622 142.966C152.334 140.311 152.852 136.311 152.762 133.321C152.672 130.332 152.563 126.265 151.819 123.461C151.076 120.653 149.966 118.796 147.727 117.048C145.488 115.3 142.754 115.026 139.86 114.771C136.969 114.515 133.224 114.558 130.094 114.573C126.965 114.588 123.324 114.563 120.148 114.573ZM132.87 128.001C134.54 128.145 136.721 127.595 138.13 128.573C139.541 129.549 139.638 131.322 139.807 133.07C139.978 134.816 139.737 137.456 139.578 139.148C139.418 140.841 138.449 142.386 136.8 142.439C135.153 142.493 132.38 143.075 132.639 140.668C132.898 138.262 132.541 136.612 132.639 134.335C132.736 132.057 132.592 130.185 132.87 128.001ZM132.639 153.589C135.417 152.812 139.953 153.711 139.99 157.192C140.024 160.673 141.276 165 139.173 167.587C137.07 170.174 131.281 169.069 132.407 165.244C133.534 161.418 132.044 157.504 132.639 153.589Z" fill="white" stroke="black"/>
<path d="M24.6175 126.734C21.9852 126.494 22.2003 132.009 22.3044 133.828C22.4085 135.647 21.7562 140.775 24.3839 140.919C27.0115 141.064 26.6993 135.652 26.6993 133.828C26.6993 132.004 26.993 126.95 24.6175 126.734Z" fill="white" stroke="black"/>
<path d="M11.8955 134.081C16.5841 135.267 16.8432 125.49 11.8955 126.987C11.8955 129.351 11.8955 131.718 11.8955 134.081Z" fill="white" stroke="black"/>
<path d="M43.585 134.588C46.6221 135.601 49.5366 130.527 46.5342 127.811C43.5318 125.092 42.9096 131.702 43.585 134.588Z" fill="white" stroke="black"/>
<path d="M54.4563 127.241C54.6668 129.182 53.7809 132.511 54.225 134.335C54.6691 136.159 53.3923 139.721 54.9189 140.669C56.4455 141.617 58.2983 138.531 58.1572 136.869C58.0161 135.207 58.407 132.197 58.1063 130.337C57.8056 128.478 56.619 126.471 54.4563 127.241Z" fill="white" stroke="black"/>
<path d="M34.7955 127.748C34.5874 129.693 34.3167 131.219 33.9466 133.152C33.5765 135.082 32.8364 137.063 35.2581 136.868C37.6799 136.673 36.1255 134.563 35.9521 132.815C35.7763 131.069 35.5658 129.136 34.7955 127.748Z" fill="white" stroke="black"/>
<path d="M13.9781 136.109C10.9989 135.349 10.9711 141.001 13.4646 140.867C15.9558 140.733 16.3837 136.722 13.9781 136.109Z" fill="white" stroke="black"/>
<path d="M114.596 144.976C105.767 144.39 96.6905 144.887 87.7644 144.722C87.6672 167.202 87.5585 189.68 87.3018 212.114C91.4329 212.677 95.7977 212.218 100.024 212.368C100.544 203.792 100.116 194.955 100.255 186.272C104.881 186.272 109.507 186.272 114.133 186.272C114.076 181.768 114.217 176.751 114.133 172.591C112.26 172.487 110.719 172.731 108.813 172.591C106.907 172.452 105.522 172.857 103.493 172.591C101.465 172.325 100.23 173.574 100.486 170.058C100.743 166.541 100.105 162.366 100.718 158.91C105.221 159.498 109.991 158.996 114.596 159.164C114.596 154.433 114.596 149.706 114.596 144.976Z" fill="white" stroke="black"/>
<path d="M79.4374 170.564C75.6463 169.705 73.2985 170.972 69.2599 170.311C65.2213 169.65 66.1928 174.565 66.2529 178.165C66.3131 181.765 66.1511 185.679 66.2529 189.312C66.3547 192.945 66.1072 196.654 66.0216 200.207C65.936 203.759 65.9985 207.873 66.0216 211.354C66.0448 214.835 65.825 218.608 65.3254 221.739C64.8258 224.873 59.8434 225.182 58.6036 222.519C57.3615 219.859 58.1826 215.175 57.9259 212.114C54.07 212.114 50.2164 212.114 46.3605 212.114C46.1246 218.608 45.5672 226.345 47.9103 232.208C50.2511 238.068 56.4016 239.162 61.6268 239.223C66.852 239.284 73.7103 239.18 76.2523 233.201C78.7944 227.222 78.7527 221.019 78.9748 214.141C79.1969 207.262 79.2917 199.479 79.2061 192.353C79.1205 185.226 79.3842 177.699 79.4374 170.564Z" fill="white" stroke="black"/>
</svg>
