<svg width="31" height="31" viewBox="0 0 31 31" fill="none" xmlns="http://www.w3.org/2000/svg">
<path d="M28.9389 14.4866C28.5494 14.4866 28.1758 14.6413 27.9004 14.9168C27.6249 15.1922 27.4702 15.5658 27.4702 15.9553L27.4702 25.5169L3.01549 1.06222C2.73451 0.821596 2.37309 0.695862 2.00344 0.71014C1.63379 0.724417 1.28314 0.877656 1.02157 1.13923C0.759991 1.40081 0.606752 1.75146 0.592474 2.12111C0.578197 2.49076 0.703932 2.85218 0.944551 3.13315L25.3699 27.5585L15.8817 27.5585C15.4922 27.5585 15.1186 27.7132 14.8432 27.9887C14.5677 28.2641 14.413 28.6377 14.413 29.0272C14.413 29.4168 14.5677 29.7903 14.8432 30.0658C15.1186 30.3412 15.4922 30.496 15.8817 30.496L29.1005 30.496C29.4511 30.496 29.7873 30.3567 30.0352 30.1088C30.2831 29.8609 30.4224 29.5247 30.4224 29.1741L30.4224 15.9553C30.4224 15.7612 30.3839 15.569 30.3092 15.3899C30.2344 15.2107 30.1249 15.0481 29.987 14.9116C29.8491 14.775 29.6854 14.6671 29.5055 14.5942C29.3256 14.5212 29.133 14.4847 28.9389 14.4866Z"/>
</svg>
