<svg width="59" height="59" viewBox="0 0 59 59" fill="none" xmlns="http://www.w3.org/2000/svg">
<g id="Frame">
<g id="Group">
<path id="Vector" d="M57.7669 15.2992C57.0884 12.7606 55.0895 10.7616 52.5509 10.0832C47.9494 8.8501 29.4998 8.8501 29.4998 8.8501C29.4998 8.8501 11.0502 8.8501 6.44852 10.0832C3.91048 10.7616 1.91105 12.7606 1.23255 15.2992C0 19.9003 0 29.5002 0 29.5002C0 29.5002 0 39.1002 1.23255 43.7008C1.91105 46.2394 3.91048 48.2388 6.44852 48.9172C11.0502 50.1499 29.4998 50.1499 29.4998 50.1499C29.4998 50.1499 47.9494 50.1499 52.5509 48.9172C55.0895 48.2388 57.0884 46.2394 57.7669 43.7008C59 39.1002 59 29.5002 59 29.5002C59 29.5002 59 19.9003 57.7669 15.2992Z" fill="#84B172"/>
<path id="Vector_2" d="M23.5996 38.3504L38.9279 29.5003L23.5996 20.6501V38.3504Z" fill="white"/>
</g>
</g>
</svg>
