<svg width="72" height="72" viewBox="0 0 34 34" fill="none" xmlns="http://www.w3.org/2000/svg">
<path d="M24.1719 11.9531H22.0469V19.3906H19.3906V31.6094H16.2031V19.3906H13.5469V11.9531H11.4219V21.5156H14.0781V33.7344H21.5156V21.5156H24.1719V11.9531Z" fill="white"/>
<path d="M14.0781 3.98438C14.0781 6.02969 15.7516 7.70312 17.7969 7.70312C19.8422 7.70312 21.5156 6.02969 21.5156 3.98438C21.5156 1.93906 19.8422 0.265625 17.7969 0.265625C15.7516 0.265625 14.0781 1.93906 14.0781 3.98438ZM19.3906 3.98438C19.3906 4.86094 18.6734 5.57812 17.7969 5.57812C16.9203 5.57812 16.2031 4.86094 16.2031 3.98438C16.2031 3.10781 16.9203 2.39062 17.7969 2.39062C18.6734 2.39062 19.3906 3.10781 19.3906 3.98438Z" fill="white"/>
<path d="M5.04688 6.64062C5.04688 8.68594 6.72031 10.3594 8.76562 10.3594C10.8109 10.3594 12.4844 8.68594 12.4844 6.64062C12.4844 4.59531 10.8109 2.92188 8.76562 2.92188C6.72031 2.92188 5.04688 4.59531 5.04688 6.64062ZM10.3594 6.64062C10.3594 7.51719 9.64219 8.23438 8.76562 8.23438C7.88906 8.23438 7.17188 7.51719 7.17188 6.64062C7.17188 5.76406 7.88906 5.04688 8.76562 5.04688C9.64219 5.04688 10.3594 5.76406 10.3594 6.64062Z" fill="white"/>
<path d="M30.0156 22.0469H27.3594V31.6094H23.1094V33.7344H29.4844V24.1719H32.1406V13.5469H30.0156V22.0469Z" fill="white"/>
<path d="M23.1094 6.64062C23.1094 8.68594 24.7828 10.3594 26.8281 10.3594C28.8734 10.3594 30.5469 8.68594 30.5469 6.64062C30.5469 4.59531 28.8734 2.92188 26.8281 2.92188C24.7828 2.92188 23.1094 4.59531 23.1094 6.64062ZM26.8281 5.04688C27.7047 5.04688 28.4219 5.76406 28.4219 6.64062C28.4219 7.51719 27.7047 8.23438 26.8281 8.23438C25.9516 8.23438 25.2344 7.51719 25.2344 6.64062C25.2344 5.76406 25.9516 5.04688 26.8281 5.04688Z" fill="white"/>
<path d="M8.23438 22.0469H5.57812V13.5469H3.45312V24.1719H6.10938V33.7344H12.4844V31.6094H8.23438V22.0469Z" fill="white"/>
</svg>
