<?xml version="1.0" encoding="UTF-8" standalone="no"?>
<!-- Created with Inkscape (http://www.inkscape.org/) -->

<svg
   version="1.1"
   id="svg93"
   xml:space="preserve"
   viewBox="0 0 682.66669 682.66669"
   xmlns="http://www.w3.org/2000/svg"
   xmlns:svg="http://www.w3.org/2000/svg"><defs
     id="defs97"><clipPath
       clipPathUnits="userSpaceOnUse"
       id="clipPath107"><path
         d="M 0,512 H 512 V 0 H 0 Z"
         id="path105" /></clipPath></defs><g
     id="g99"
     transform="matrix(1.3333333,0,0,-1.3333333,0,682.66667)"><g
       id="g101"><g
         id="g103"
         clip-path="url(#clipPath107)"><g
           id="g109"
           transform="translate(234.8198,360.9199)"><path
             d="m 0,0 c 3.91,-3.9 3.91,-10.23 0,-14.14 -3.9,-3.9 -10.23,-3.9 -14.14,0 -3.9,3.91 -3.9,10.24 0,14.14 C -10.23,3.91 -3.9,3.91 0,0"
             style="fill:#000000;fill-opacity:1;fill-rule:nonzero;stroke:none"
             id="path111" /></g><g
           id="g113"
           transform="translate(234.8198,261.9302)"><path
             d="m 0,0 c 11.72,-11.72 11.72,-30.71 0,-42.43 -11.71,-11.71 -30.71,-11.71 -42.42,0 l -70.71,70.71 c -11.72,11.72 -11.72,30.71 0,42.43 5.85,5.86 13.53,8.79 21.21,8.79 7.68,0 15.36,-2.93 21.21,-8.79"
             style="fill:none;stroke:#000000;stroke-width:20;stroke-linecap:round;stroke-linejoin:round;stroke-miterlimit:10;stroke-dasharray:none;stroke-opacity:1"
             id="path115" /></g><g
           id="g117"
           transform="translate(262.9502,431.7998)"><path
             d="m 0,0 c -11.56,11.73 -11.5,30.61 0.16,42.26 5.85,5.86 13.53,8.79 21.21,8.79 7.68,0 15.36,-2.93 21.21,-8.79 l 70.71,-70.71 c 11.72,-11.72 11.72,-30.71 0,-42.43 -11.7,-11.7 -30.69,-11.71 -42.4,-0.01"
             style="fill:none;stroke:#000000;stroke-width:20;stroke-linecap:round;stroke-linejoin:round;stroke-miterlimit:10;stroke-dasharray:none;stroke-opacity:1"
             id="path119" /></g><g
           id="g121"
           transform="translate(277.25,290.21)"><path
             d="m 0,0 -35.36,-35.35 -7.07,7.07 -70.71,70.71 -7.07,7.07 99,99 6.91,-6.91 L 7.07,120.21 56.59,70.7 63.64,63.64 28.4,28.4"
             style="fill:none;stroke:#000000;stroke-width:20;stroke-linecap:round;stroke-linejoin:round;stroke-miterlimit:10;stroke-dasharray:none;stroke-opacity:1"
             id="path123" /></g><g
           id="g125"
           transform="translate(334.3398,290.8501)"><path
             d="m 0,0 0.05,-0.04 155.89,-128.53 c 15.63,-15.62 15.63,-40.94 0,-56.56 -15.62,-15.63 -40.94,-15.63 -56.56,0 L -29.57,-29.65"
             style="fill:none;stroke:#000000;stroke-width:20;stroke-linecap:round;stroke-linejoin:round;stroke-miterlimit:10;stroke-dasharray:none;stroke-opacity:1"
             id="path127" /></g><g
           id="g129"
           transform="translate(334.3901,290.8101)"><path
             d="m 0,0 c -0.18,-0.21 -0.37,-0.4 -0.57,-0.6 l -28.29,-28.28 c -0.25,-0.25 -0.51,-0.49 -0.77,-0.72 -7.85,-7.08 -19.95,-6.84 -27.51,0.72 -3.91,3.91 -5.86,9.02 -5.86,14.14 0,5.12 1.95,10.23 5.86,14.14 l 28.28,28.29 c 0.04,0.04 0.08,0.08 0.12,0.11 7.82,7.7 20.4,7.66 28.17,-0.11 3.9,-3.9 5.86,-9.02 5.86,-14.14 C 5.29,8.69 3.52,3.82 0,0 Z"
             style="fill:none;stroke:#000000;stroke-width:20;stroke-linecap:round;stroke-linejoin:round;stroke-miterlimit:10;stroke-dasharray:none;stroke-opacity:1"
             id="path131" /></g><g
           id="g133"
           transform="translate(230.04,79)"><path
             d="m 0,0 c 11.04,0 20,-8.95 20,-20 v -30 h -240 v 30 c 0,11.05 8.95,20 20,20"
             style="fill:none;stroke:#000000;stroke-width:20;stroke-linecap:round;stroke-linejoin:round;stroke-miterlimit:10;stroke-dasharray:none;stroke-opacity:1"
             id="path135" /></g><g
           id="g137"
           transform="translate(230.04,79)"><path
             d="m 0,0 h -200 v 10 c 0,22.09 17.9,40 40,40 H -40 C -17.91,50 0,32.09 0,10 Z"
             style="fill:none;stroke:#000000;stroke-width:20;stroke-linecap:round;stroke-linejoin:round;stroke-miterlimit:10;stroke-dasharray:none;stroke-opacity:1"
             id="path139" /></g><g
           id="g141"
           transform="translate(10.04,249)"><path
             d="M 0,0 H 46"
             style="fill:none;stroke:#000000;stroke-width:20;stroke-linecap:round;stroke-linejoin:round;stroke-miterlimit:10;stroke-dasharray:none;stroke-opacity:1"
             id="path143" /></g><g
           id="g145"
           transform="translate(41.8901,323.1401)"><path
             d="M 0,0 28.29,-28.28"
             style="fill:none;stroke:#000000;stroke-width:20;stroke-linecap:round;stroke-linejoin:round;stroke-miterlimit:10;stroke-dasharray:none;stroke-opacity:1"
             id="path147" /></g><g
           id="g149"
           transform="translate(41.8901,174.8599)"><path
             d="M 0,0 28.29,28.28"
             style="fill:none;stroke:#000000;stroke-width:20;stroke-linecap:round;stroke-linejoin:round;stroke-miterlimit:10;stroke-dasharray:none;stroke-opacity:1"
             id="path151" /></g><g
           id="g153"
           transform="translate(256.04,382.1401)"><path
             d="M 0,0 28.28,28.28"
             style="fill:none;stroke:#000000;stroke-width:20;stroke-linecap:round;stroke-linejoin:round;stroke-miterlimit:10;stroke-dasharray:none;stroke-opacity:1"
             id="path155" /></g></g></g></g></svg>
