<svg fill="none" viewBox="0 0 24 24" xmlns="http://www.w3.org/2000/svg"><g fill="rgb(0,0,0)"><path d="m11.5 13.25c-1.1372 0-2.24894-.3372-3.19453-.969-.94558-.6319-1.68257-1.5299-2.11777-2.58057-.43521-1.05067-.54908-2.20681-.32721-3.3222.22186-1.11539.7695-2.13994 1.57365-2.94409s1.8287-1.35179 2.94406-1.57365c1.1154-.22187 2.2716-.108 3.3222.32721 1.0507.4352 1.9487 1.17219 2.5806 2.11777.6318.94559.969 2.05729.969 3.19453-.0026 1.52419-.6093 2.9852-1.6871 4.0629-1.0777 1.0778-2.5387 1.6845-4.0629 1.6871zm0-10c-.8406 0-1.66226.24926-2.36117.71626-.69891.46699-1.24364 1.13075-1.56532 1.90734-.32167.77658-.40583 1.63112-.24184 2.45554.16398.82442.56876 1.58169 1.16313 2.17606.59437.5944 1.35165.9992 2.1761 1.1631.8244.164 1.6789.0799 2.4555-.2418s1.4404-.8664 1.9073-1.56532c.467-.69891.7163-1.52061.7163-2.36118-.0026-1.12636-.4513-2.20583-1.2477-3.00228-.7965-.79646-1.8759-1.24508-3.0023-1.24772z"/><path d="m2.5 21.25c-.19811-.0026-.38737-.0824-.52747-.2225-.14009-.1401-.21994-.3294-.22253-.5275.00528-2.319.92885-4.5415 2.56865-6.1813s3.86233-2.5634 6.18135-2.5687h2c.1989 0 .3897.079.5303.2197.1407.1406.2197.3314.2197.5303s-.079.3897-.2197.5303c-.1406.1407-.3314.2197-.5303.2197h-2c-1.92201.0026-3.76454.7673-5.1236 2.1264-1.35907 1.3591-2.12375 3.2016-2.1264 5.1236-.00259.1981-.08244.3874-.22253.5275-.1401.1401-.32936.2199-.52747.2225z"/><path d="m14.5 22.25c-.1926-.0158-.3718-.1053-.5-.25l-4-4c-.06683-.14-.08864-.2972-.06241-.45.02623-.1529.09921-.2939.20891-.4036.1096-.1096.2506-.1826.4035-.2088.1528-.0262.3101-.0044.45.0624l3.43 3.43 6.51-7.43c.0657-.0735.1452-.1334.234-.1762.0888-.0429.1852-.0678.2836-.0733.0984-.0056.197.0083.29.0408.0931.0325.1789.083.2524.1487.0736.0657.1334.1452.1763.234.0428.0888.0677.1851.0732.2836.0056.0984-.0083.197-.0408.29-.0325.0931-.083.1789-.1487.2524l-7 8c-.0654.0779-.1463.1412-.2375.186-.0913.0447-.1909.07-.2925.074z"/></g></svg>