<svg id="Capa_1" enable-background="new 0 0 512.11 512.11" viewBox="0 0 512.11 512.11" xmlns="http://www.w3.org/2000/svg"><g><path d="m327.96 276.149c-19.436-12.957-44.991-20.093-71.96-20.093s-52.524 7.136-71.96 20.093c-21.306 14.204-33.04 33.703-33.04 54.907s11.734 40.703 33.04 54.907c19.436 12.957 44.991 20.093 71.96 20.093s52.524-7.136 71.96-20.093c21.306-14.204 33.04-33.704 33.04-54.907s-11.734-40.703-33.04-54.907zm-71.96 99.907c-40.654 0-75-20.607-75-45s34.346-45 75-45 75 20.607 75 45-34.346 45-75 45z"/><circle cx="226" cy="331.056" r="15"/><circle cx="286" cy="331.056" r="15"/><path d="m166 256.056c8.284 0 15-6.716 15-15v-30c0-8.284-6.716-15-15-15s-15 6.716-15 15v30c0 8.284 6.716 15 15 15z"/><path d="m346 196.056c-8.284 0-15 6.716-15 15v30c0 8.284 6.716 15 15 15s15-6.716 15-15v-30c0-8.284-6.716-15-15-15z"/><path d="m467.11 196.056c24.813 0 45-20.187 45-45 0-6.958-1.637-13.911-4.734-20.106l-30-60c-12.374-24.75-43.172-32.045-65.206-17.355l-63.431 42.288c-28.311-12.734-59.708-19.827-92.739-19.827-33.005 0-64.379 7.083-92.672 19.798l-63.387-42.258c-22.035-14.691-52.831-7.399-65.207 17.353l-30 60c-3.097 6.196-4.734 13.148-4.734 20.107 0 24.813 20.187 45 45 45 6.598 0 11.413-1.496 12.028-1.615-17.233 31.75-27.028 68.064-27.028 106.615 0 124.62 100.282 165 226 165 125.679 0 226-40.354 226-165 0-38.563-9.801-74.889-27.045-106.646.99.192 5.133 1.646 12.155 1.646zm-418.45-30.447c-12.485 3.12-22.759-9.911-17.093-21.244l30-60c4.15-8.299 14.445-10.667 21.732-5.808l50.229 33.486c-19.256 12.41-36.502 27.654-51.143 45.135zm207.34 270.447c-131.888 0-196-44.159-196-135 0-107.523 87.925-195 196-195s196 87.477 196 195c0 90.841-64.112 135-196 135zm122.528-323.977 50.284-33.522c7.273-4.85 17.573-2.507 21.731 5.809l30 60c5.639 11.276-4.539 24.383-17.094 21.244l-33.863-8.465c-14.621-17.452-31.838-32.671-51.058-45.066z"/></g></svg>