<?xml version="1.0" encoding="UTF-8" standalone="no"?>
<!DOCTYPE svg PUBLIC "-//W3C//DTD SVG 1.1//EN" "http://www.w3.org/Graphics/SVG/1.1/DTD/svg11.dtd">
<svg width="100%" height="100%" viewBox="0 0 64 64" version="1.1" xmlns="http://www.w3.org/2000/svg" xmlns:xlink="http://www.w3.org/1999/xlink" xml:space="preserve" xmlns:serif="http://www.serif.com/" style="fill-rule:evenodd;clip-rule:evenodd;stroke-linejoin:round;stroke-miterlimit:2;">
    <path d="M21,28.88C21.549,28.88 22,28.429 22,27.88L22,25L25.57,25L25.57,27.88C25.57,28.429 26.021,28.88 26.57,28.88C27.119,28.88 27.57,28.429 27.57,27.88L27.57,20.11C27.57,19.561 27.119,19.11 26.57,19.11C26.021,19.11 25.57,19.561 25.57,20.11L25.57,23L22,23L22,20.11C22,19.561 21.549,19.11 21,19.11C20.451,19.11 20,19.561 20,20.11L20,27.88C20,28.429 20.451,28.88 21,28.88Z" style="fill-rule:nonzero;"/>
    <path d="M49.54,28.88C50.089,28.88 50.54,28.429 50.54,27.88L50.54,26.16L52.86,28.16C53.041,28.315 53.272,28.4 53.51,28.4C54.059,28.4 54.51,27.949 54.51,27.4C54.51,27.108 54.382,26.83 54.16,26.64L51.16,24.07L54.27,21.74C54.525,21.552 54.676,21.253 54.676,20.935C54.676,20.721 54.608,20.512 54.48,20.34C54.292,20.086 53.993,19.935 53.676,19.935C53.457,19.935 53.244,20.007 53.07,20.14L50.54,22L50.54,20.11C50.54,19.561 50.089,19.11 49.54,19.11C48.991,19.11 48.54,19.561 48.54,20.11L48.54,27.88C48.54,28.429 48.991,28.88 49.54,28.88Z" style="fill-rule:nonzero;"/>
    <path d="M39.08,28.88C39.629,28.88 40.08,28.429 40.08,27.88L40.08,23.22L43.83,28.46C44.017,28.722 44.318,28.879 44.64,28.88C44.746,28.884 44.851,28.867 44.95,28.83C45.36,28.696 45.64,28.311 45.64,27.88L45.64,20.11C45.64,19.561 45.189,19.11 44.64,19.11C44.091,19.11 43.64,19.561 43.64,20.11L43.64,24.77L39.89,19.53C39.702,19.27 39.4,19.116 39.08,19.116C38.534,19.116 38.083,19.564 38.08,20.11L38.08,27.88C38.08,28.429 38.531,28.88 39.08,28.88Z" style="fill-rule:nonzero;"/>
    <path d="M10.35,21.11L12.75,21.11L12.75,27.88C12.75,28.429 13.201,28.88 13.75,28.88C14.299,28.88 14.75,28.429 14.75,27.88L14.75,21.11L17.15,21.11C17.699,21.11 18.15,20.659 18.15,20.11C18.15,19.561 17.699,19.11 17.15,19.11L10.35,19.11C9.801,19.11 9.35,19.561 9.35,20.11C9.35,20.659 9.801,21.11 10.35,21.11Z" style="fill-rule:nonzero;"/>
    <path d="M30,28.82C30.106,28.858 30.217,28.879 30.33,28.88C30.754,28.884 31.136,28.618 31.28,28.22L31.61,27.28L34.61,27.28L34.94,28.22C35.083,28.615 35.46,28.88 35.88,28.88C35.996,28.88 36.111,28.86 36.22,28.82C36.736,28.633 37.006,28.056 36.82,27.54L34,19.77C33.966,19.706 33.926,19.646 33.88,19.59C33.852,19.539 33.819,19.492 33.78,19.45C33.737,19.405 33.686,19.368 33.63,19.34L33.46,19.23C33.413,19.225 33.367,19.225 33.32,19.23C33.254,19.22 33.186,19.22 33.12,19.23C33.054,19.22 32.986,19.22 32.92,19.23C32.873,19.225 32.827,19.225 32.78,19.23C32.733,19.235 32.78,19.23 32.78,19.23L32.6,19.34C32.547,19.368 32.5,19.405 32.46,19.45C32.418,19.492 32.381,19.539 32.35,19.59C32.308,19.646 32.271,19.707 32.24,19.77C32.209,19.833 32.24,19.77 32.24,19.77L30.05,25.89L29.46,27.53C29.261,28.032 29.502,28.61 30,28.82ZM33.12,23.07L33.91,25.28L32.28,25.28L33.12,23.07Z" style="fill-rule:nonzero;"/>
    <path d="M41.81,44.89C43.9,44.89 45.6,42.89 45.6,40.48L45.6,34.37C45.6,33.821 45.149,33.37 44.6,33.37C44.051,33.37 43.6,33.821 43.6,34.37L43.6,40.48C43.6,41.79 42.78,42.89 41.81,42.89C40.84,42.89 40,41.79 40,40.48L40,34.37C40,33.821 39.549,33.37 39,33.37C38.451,33.37 38,33.821 38,34.37L38,40.48C38,42.91 39.73,44.89 41.81,44.89Z" style="fill-rule:nonzero;"/>
    <path d="M21.49,40L21.49,43.9C21.49,44.449 21.941,44.9 22.49,44.9C23.039,44.9 23.49,44.449 23.49,43.9L23.49,40L26.49,34.86C26.577,34.708 26.623,34.535 26.623,34.36C26.623,33.81 26.17,33.357 25.62,33.357C25.261,33.357 24.929,33.549 24.75,33.86L22.5,37.73L20.27,33.87C20.092,33.558 19.76,33.365 19.401,33.365C19.225,33.365 19.052,33.412 18.9,33.5C18.593,33.679 18.403,34.009 18.403,34.364C18.403,34.542 18.45,34.717 18.54,34.87L21.49,40Z" style="fill-rule:nonzero;"/>
    <path d="M31.31,44.89C33.87,44.89 35.95,42.31 35.95,39.13C35.95,35.95 33.87,33.37 31.31,33.37C28.75,33.37 26.68,36 26.68,39.13C26.68,42.26 28.76,44.89 31.31,44.89ZM31.31,35.37C32.74,35.37 33.95,37.09 33.95,39.13C33.95,41.17 32.74,42.89 31.31,42.89C29.88,42.89 28.68,41.17 28.68,39.13C28.68,37.09 29.88,35.37 31.31,35.37Z" style="fill-rule:nonzero;"/>
    <path d="M61,12.52L3,12.52C2.451,12.52 2,12.971 2,13.52L2,50.52C2,51.069 2.451,51.52 3,51.52L61,51.52C61.549,51.52 62,51.069 62,50.52L62,13.52C62,12.971 61.549,12.52 61,12.52ZM60,35.89L46.39,49.48L4,49.48L4,14.48L60,14.48L60,35.89Z" style="fill-rule:nonzero;"/>
</svg>
