<svg id="Capa_1" enable-background="new 0 0 512 512" viewBox="0 0 512 512" xmlns="http://www.w3.org/2000/svg"><g><g id="Page-1_45_"><g id="ride_export_45_" transform="translate(-656 -427)"><path id="trailer_x2C_-transport_x2C_-car_x2C_-cargo_x2C_-travel_x2C_-tent" d="m866.824 859.941c-17.991 0-34.139-7.887-45.177-20.392-11.037 12.505-27.186 20.392-45.176 20.392-25.279 0-46.921-15.572-55.857-37.647h-19.438c-24.95 0-45.176-20.226-45.176-45.176v-225.883c0-24.95 20.226-45.176 45.176-45.176h271.059c24.95 0 45.176 20.226 45.176 45.176v210.824h135.529c8.317 0 15.059 6.742 15.059 15.059s-6.742 15.059-15.059 15.059h-22.588v22.588c0 8.317-6.742 15.059-15.059 15.059s-15.059-6.742-15.059-15.059v-22.588h-85.394c-6.202 17.546-22.936 30.118-42.606 30.118h-49.554c-8.935 22.074-30.578 37.646-55.856 37.646zm0-120.47c30.717 0 56.064 22.992 59.769 52.706h45.642c8.317 0 15.059-6.742 15.059-15.059v-75.294h-301.176v75.294c0 8.317 6.742 15.059 15.059 15.059h15.525c3.705-29.713 29.052-52.706 59.769-52.706 17.991 0 34.139 7.887 45.176 20.392 11.037-12.505 27.186-20.392 45.177-20.392zm120.47-67.765v-120.471c0-8.317-6.742-15.059-15.059-15.059h-271.059c-8.317 0-15.059 6.742-15.059 15.059v120.471zm-210.823 158.118c16.634 0 30.118-13.484 30.118-30.118s-13.484-30.118-30.118-30.118-30.118 13.484-30.118 30.118 13.484 30.118 30.118 30.118zm90.353 0c16.634 0 30.118-13.484 30.118-30.118s-13.484-30.118-30.118-30.118-30.118 13.484-30.118 30.118 13.484 30.118 30.118 30.118z"/></g></g></g></svg>